<?xml version="1.0" encoding="UTF-8" standalone="no"?>
<svg width="100px" height="300px" viewBox="0 0 100 300" version="1.1" xmlns="http://www.w3.org/2000/svg" xmlns:xlink="http://www.w3.org/1999/xlink" xmlns:sketch="http://www.bohemiancoding.com/sketch/ns">
    <!-- Generator: Sketch 3.3 (11970) - http://www.bohemiancoding.com/sketch -->
    <title>subway-sprites-video-default</title>
    <desc>Created with Sketch.</desc>
    <defs></defs>
    <g id="Page-1" stroke="none" stroke-width="1" fill="none" fill-rule="evenodd" sketch:type="MSPage">
        <g id="subway-sprites-video-default" sketch:type="MSLayerGroup">
            <g id="Page-1" sketch:type="MSShapeGroup">
                <g id="Group">
                    <g id="b-link">
                        <g id="b">
                            <circle id="Oval" fill="#FFFFFF" cx="50" cy="50" r="45"></circle>
                            <path d="M0,50 C0,22.4 22.4,0 50,0 C77.6,0 100,22.4 100,50 C100,77.6 77.6,100 50,100 C22.4,100 0,77.6 0,50 L0,50 L0,50 Z M10.7,50 C10.7,69.5 30.5,89.3 50,89.3 C69.5,89.3 89.3,69.5 89.3,50 C89.3,30.5 69.5,10.7 50,10.7 C30.5,10.7 10.7,30.5 10.7,50 L10.7,50 L10.7,50 Z" id="a" fill="#CCCCCC"></path>
                        </g>
                    </g>
                    <g id="c-link" transform="translate(36.000000, 29.000000)" fill="#DDDDDD">
                        <path d="M1.8,39.67 C0.99,40.12 0.36,39.67 0.36,38.77 L0.36,1.24 C0.36,0.34 0.99,-0.02 1.8,0.34 L35.64,19.15 C36.36,19.6 36.36,20.32 35.64,20.77 L1.8,39.67 L1.8,39.67 Z" id="c"></path>
                    </g>
                    <g id="b-link" transform="translate(0.000000, 100.000000)">
                        <g id="b">
                            <circle id="Oval" fill="#FFFFFF" cx="50" cy="50" r="45"></circle>
                            <path d="M0,50 C0,22.4 22.4,0 50,0 C77.6,0 100,22.4 100,50 C100,77.6 77.6,100 50,100 C22.4,100 0,77.6 0,50 L0,50 L0,50 Z M10.7,50 C10.7,69.5 30.5,89.3 50,89.3 C69.5,89.3 89.3,69.5 89.3,50 C89.3,30.5 69.5,10.7 50,10.7 C30.5,10.7 10.7,30.5 10.7,50 L10.7,50 L10.7,50 Z" id="a" fill="#CCCCCC"></path>
                        </g>
                    </g>
                    <g id="d-link" transform="translate(0.000000, 100.000000)" fill="#28ADA0">
                        <path d="M50,100 C22.4,100 0,77.6 0,50 C0,22.4 22.4,0 50,0 L50.1,0 L50.1,10.7 L50,10.7 C30.5,10.7 10.7,30.5 10.7,50 C10.7,69.5 30.5,89.3 50,89.3 L50.1,89.3 L50,100 L50,100 Z" id="d"></path>
                    </g>
                    <g id="c-link" transform="translate(36.000000, 129.000000)" fill="#DDDDDD">
                        <path d="M1.8,39.67 C0.99,40.12 0.36,39.67 0.36,38.77 L0.36,1.24 C0.36,0.34 0.99,-0.02 1.8,0.34 L35.64,19.15 C36.36,19.6 36.36,20.32 35.64,20.77 L1.8,39.67 L1.8,39.67 Z" id="c"></path>
                    </g>
                    <g id="b-link" transform="translate(0.000000, 200.000000)">
                        <g id="b">
                            <circle id="Oval" fill="#FFFFFF" cx="50" cy="50" r="45"></circle>
                            <path d="M0,50 C0,22.4 22.4,0 50,0 C77.6,0 100,22.4 100,50 C100,77.6 77.6,100 50,100 C22.4,100 0,77.6 0,50 L0,50 L0,50 Z M10.7,50 C10.7,69.5 30.5,89.3 50,89.3 C69.5,89.3 89.3,69.5 89.3,50 C89.3,30.5 69.5,10.7 50,10.7 C30.5,10.7 10.7,30.5 10.7,50 L10.7,50 L10.7,50 Z" id="a" fill="#28ADA0"></path>
                        </g>
                    </g>
                    <g id="e-link" transform="translate(15.000000, 215.000000)" fill="#28ADA0">
                        <path d="M69.1,35 C69.1,52.2 52.2,69.1 35,69.1 C17.8,69.1 0.9,52.2 0.9,35 C0.9,17.8 17.8,0.9 35,0.9 C52.2,0.9 69.1,17.8 69.1,35 L69.1,35 L69.1,35 Z" id="e"></path>
                    </g>
                    <g id="c-link" transform="translate(36.000000, 229.000000)" fill="#FFFFFF">
                        <path d="M1.8,39.67 C0.99,40.12 0.36,39.67 0.36,38.77 L0.36,1.24 C0.36,0.34 0.99,-0.02 1.8,0.34 L35.64,19.15 C36.36,19.6 36.36,20.32 35.64,20.77 L1.8,39.67 L1.8,39.67 Z" id="c"></path>
                    </g>
                </g>
            </g>
        </g>
    </g>
</svg>