<?xml version="1.0" standalone="no"?>
<!DOCTYPE svg PUBLIC "-//W3C//DTD SVG 1.1//EN" "http://www.w3.org/Graphics/SVG/1.1/DTD/svg11.dtd" >
<svg xmlns="http://www.w3.org/2000/svg">
<metadata>Generated by IcoMoon</metadata>
<defs>
<font id="icomoon" horiz-adv-x="1024">
<font-face units-per-em="1024" ascent="960" descent="-64" />
<missing-glyph horiz-adv-x="1024" />
<glyph unicode="&#x20;" horiz-adv-x="512" d="" />
<glyph unicode="&#xe900;" glyph-name="icona1" d="M525.271 923.873c-307.195 0-468.434-170.609-468.434-325.78 0-174.126 230.17-147.712 230.17-432.507h233.083c0 0 218.875-0.671 225.562-0.671 6.682 286.807 233.267 263.731 233.267 434.524 0 145.756-146.452 324.434-453.647 324.434zM319.974 97.587c0 0 0-20.25 0-45.215 0-24.975 29.624-45.22 66.166-45.22h264.622c36.536 0 66.156 20.25 66.156 45.22 0 24.965-4.137 45.215-4.137 45.215h-392.806z" />
<glyph unicode="&#xe901;" glyph-name="iconb2" d="M53.632 607.584l441.824-621.152-177.184 621.152h-264.608zM366.336 607.584l156.448-622.432 134.624 622.432h-291.072zM546.56-13.568l425.312 621.152h-262.56l-162.784-621.152zM972.896 648.192l-127.52 247.008-127.52-247.008h255.104zM805.248 909.312h-255.072l127.52-255.392 127.52 255.392zM638.496 648.192l-127.52 247.008-127.52-247.008h255.072zM473.632 909.312h-255.072l127.52-255.392 127.52 255.392zM178.528 895.136l-127.52-247.008h255.104l-127.52 247.008z" />
<glyph unicode="&#xe902;" glyph-name="icona2" d="M753.952 469.856l216.032 163.872-216.032 142.048h-270.048v87.392c0 24.16-24.192 43.68-54.016 43.68s-54.016-19.552-54.016-43.68v-87.392h-324v-305.888h324v-349.568h-162.016c-29.824 0-54.016-19.584-54.016-43.68v-87.392h540.032v87.392c0 24.16-24.192 43.68-54.016 43.68h-162.016v349.568h270.048z" />
<glyph unicode="&#xe903;" glyph-name="layers43" d="M971.878 611.062l-460.109 297.784-460.109-297.784 460.109-297.81 460.109 297.81zM511.77 246.81l-406.134 253.153-53.975-52.961 460.109-297.795 460.109 297.795-54.697 54.088-405.412-254.28zM511.77 82.775l-406.129 253.148-53.98-52.961 460.109-297.795 460.109 297.795-54.697 54.077-405.412-254.264z" />
<glyph unicode="&#xe904;" glyph-name="icon-013" d="M511.98 960l-413.036-238.43 415.717-240.057 413.046 238.43zM58.932 175.289l414.438-239.249v480.073l-414.438 239.249v-480.073zM550.619 412.993v-476.962l414.438 239.259v476.962z" />
<glyph unicode="&#xe905;" glyph-name="layers42" d="M0 661.344l512 256 512-256-512-256zM512 138.336l416 208.352 96-48-512-256.352-512 256.352 96 48zM512 319.648l416 208 96-48-512-256-512 256 96 48zM833.312 661.344l-321.312 160.672-321.312-160.672 321.312-160.672z" />
<glyph unicode="&#xe906;" glyph-name="arrow-down-alt12" d="M512 960c-282.752 0-512-229.248-512-512 0-282.784 229.248-512 512-512 282.784 0 512 229.216 512 512s-229.216 512-512 512zM512 192l-256 256h192v256h128v-256h192l-256-256z" />
<glyph unicode="&#xe907;" glyph-name="layers32" d="M512 278.016q-18.016 13.984-162.976 127.008t-221.024 171.008l384 297.984 384-297.984q-76-57.984-220-169.984t-164-128zM512 167.968l313.984 246.016 70.016-54.016-384-297.984-384 297.984 70.016 54.016z" />
<glyph unicode="&#xe908;" glyph-name="light-bulb22" d="M367.936-21.6c40.384-26.112 87.104-43.776 144.064-42.4 56.896-1.376 103.68 16.288 144.064 42.4l-0.864 111.2h-286.4l-0.864-111.2zM650.080 140.8c0 223.072 237.056 299.424 219.296 521.632-11.168 140.192-106.144 297.472-357.376 297.472s-346.208-157.28-357.44-297.536c-17.76-222.144 219.328-298.496 219.328-521.568h276.16zM256 652.8c10.592 133.024 108.192 204.8 256 204.8s238.272-70.208 248.896-203.2c5.792-72.896-36.096-121.504-92.608-201.024-41.664-58.688-82.080-119.968-105.056-210.176h-102.4c-22.976 90.208-63.392 151.488-105.12 210.24-56.48 79.456-105.536 126.464-99.68 199.36z" />
<glyph unicode="&#xe909;" glyph-name="ib-exercise2" d="M913.696 908.736h-633.184c-31.808 0-57.568-25.76-57.568-57.568v-374.112h-115.136c-31.808 0-57.568-25.76-57.568-57.568v-316.576c0-63.552 51.552-115.136 115.136-115.136h690.752c63.552 0 115.136 51.552 115.136 115.136v748.32c0 31.808-25.76 57.568-57.568 57.568zM107.872 102.848v287.808c0 15.872 12.864 28.736 28.736 28.736h86.304v-316.576c0-31.808-25.76-57.568-57.568-57.568s-57.568 25.76-57.568 57.568zM856.128 45.344h-591.584c9.888 16.96 15.936 36.512 15.936 57.568v719.52c0 15.872 12.864 28.736 28.736 28.736h575.648c15.872 0 28.736-12.864 28.736-28.736v-719.52c0-31.808-25.76-57.568-57.568-57.568zM820.576 549.888l-110.24 110.144c-11.264 11.264-29.472 11.264-40.672 0l-301.12-301.216v-150.88h150.88l301.12 301.12c11.264 11.264 11.264 29.472 0 40.736zM498.016 265.568h-71.968v71.968l1.248 1.248 71.968-71.968-1.248-1.248zM540 307.488l-71.968 71.968 217.088 217.088 71.968-71.968-217.088-217.088zM397.312 605.248h115.136c15.872 0 28.736 12.864 28.736 28.736s-12.864 28.736-28.736 28.736h-115.136c-15.872 0-28.736-12.864-28.736-28.736s12.864-28.736 28.736-28.736z" />
<glyph unicode="&#xe90a;" glyph-name="ib-evaluate2" d="M912.384 905.568h-805.216c-31.808 0-57.504-25.76-57.504-57.504v-805.216c0-31.808 25.76-57.504 57.504-57.504h805.216c31.808 0 57.504 25.76 57.504 57.504v805.216c0 31.808-25.76 57.504-57.504 57.504zM912.384 71.616c0-15.872-12.864-28.736-28.736-28.736h-747.744c-15.872 0-28.736 12.864-28.736 28.736v747.744c0 15.872 12.864 28.736 28.736 28.736h747.744c15.872 0 28.736-12.864 28.736-28.736v-747.744zM797.408 416.704h-115.040c-15.872 0-28.736-12.864-28.736-28.736v-258.848h172.544v258.848c0 15.872-12.864 28.736-28.736 28.736zM768.672 186.592h-57.504v172.544h57.504v-172.544zM567.296 761.792h-115.040c-15.872 0-28.736-12.864-28.736-28.736v-603.936h172.544v603.936c0 15.872-12.864 28.736-28.736 28.736zM538.56 186.592h-57.504v517.632h57.504v-517.632zM337.248 589.248h-115.040c-15.872 0-28.736-12.864-28.736-28.736v-431.392h172.544v431.392c0 15.872-12.864 28.736-28.736 28.736zM308.512 186.592h-57.504v345.088h57.504v-345.088z" />
<glyph unicode="&#xe90b;" glyph-name="ib-my" d="M904.883 669.184l-229.263 229.263c-5.181 5.207-12.344 8.422-20.296 8.422h-487.306c-31.688 0-57.329-25.641-57.329-57.329v-802.621c0-31.688 25.641-57.329 57.329-57.329h687.959c31.688 0 57.329 25.641 57.329 57.329v601.969c0.005 7.946-3.215 15.114-8.422 20.296zM683.991 809.006l131.456-131.456h-131.456v131.456zM827.315 46.925h-630.63c-15.841 0-28.667 12.82-28.667 28.667v745.288c0 15.841 12.82 28.667 28.667 28.667h429.972v-200.653c0-15.841 12.82-28.667 28.667-28.667h200.653v-544.635c0.005-15.846-12.82-28.667-28.662-28.667zM716.938 495.278l-123.505 18.867-55.485 118.185c-4.731 10.076-14.838 16.486-25.948 16.486s-21.217-6.41-25.948-16.486l-55.485-118.185-123.505-18.867c-10.609-1.623-19.425-9.042-22.84-19.231s-0.84-21.417 6.661-29.117l90.194-92.488-21.361-130.842c-1.761-10.834 2.831-21.724 11.786-28.047 8.96-6.328 20.772-6.968 30.397-1.649l110.1 60.882 110.1-60.882c4.337-2.406 9.124-3.584 13.88-3.584 5.796 0 11.592 1.761 16.517 5.233 8.96 6.328 13.548 17.219 11.786 28.047l-21.361 130.842 90.194 92.488c7.501 7.7 10.076 18.924 6.661 29.117-3.415 10.184-12.232 17.603-22.84 19.231zM591.78 384.113c-6.354-6.523-9.236-15.647-7.782-24.632l14.193-86.835-72.31 39.972c-4.337 2.381-9.098 3.584-13.885 3.584-4.782 0-9.544-1.203-13.88-3.584l-72.31-39.972 14.193 86.835c1.454 8.986-1.428 18.109-7.782 24.632l-61.358 62.904 83.502 12.764c9.436 1.428 17.551 7.475 21.612 16.154l36.029 76.754 36.029-76.754c4.060-8.678 12.175-14.725 21.612-16.154l83.502-12.764-61.363-62.904z" />
<glyph unicode="&#xe90c;" glyph-name="t-plus1" d="M906.612 913.455h-794.252c-36.585 0-66.188-26.019-66.188-58.182v-814.545c0-32.163 29.603-58.182 66.188-58.182h794.252c36.585 0 66.188 26.019 66.188 58.182v814.545c0 32.163-29.603 58.182-66.188 58.182zM840.425 98.909h-661.876v698.182h661.876v-698.182zM345.647 389.818h332.753c36.771 0 66.56 26.019 66.56 58.182s-29.789 58.182-66.56 58.182h-332.753c-36.771 0-66.56-26.019-66.56-58.182s29.743-58.182 66.56-58.182zM445.44 593.455v-290.909c0-32.163 29.789-58.182 66.56-58.182s66.56 26.019 66.56 58.182v290.909c0 32.163-29.789 58.182-66.56 58.182s-66.56-26.019-66.56-58.182z" />
<glyph unicode="&#xe90d;" glyph-name="t-minus" d="M906.612 913.455h-794.252c-36.585 0-66.188-26.019-66.188-58.182v-814.545c0-32.163 29.603-58.182 66.188-58.182h794.252c36.585 0 66.188 26.019 66.188 58.182v814.545c0 32.163-29.603 58.182-66.188 58.182zM840.425 98.909h-661.876v698.182h661.876v-698.182zM345.647 389.818h332.753c36.771 0 66.56 26.019 66.56 58.182s-29.789 58.182-66.56 58.182h-332.753c-36.771 0-66.56-26.019-66.56-58.182s29.743-58.182 66.56-58.182z" />
<glyph unicode="&#xe90e;" glyph-name="voice" d="M899.956 911.127h-773.958c-35.654 0-64.512-26.019-64.512-58.182v-814.545c0-32.163 28.858-58.182 64.512-58.182h773.958c35.654 0 64.512 26.019 64.512 58.182v814.545c0 32.163-28.905 58.182-64.512 58.182zM835.444 96.582h-644.98v698.182h644.98v-698.182zM512.977 372.271c67.444 0 122.089 49.292 122.089 110.127v109.894c0 60.835-54.644 110.127-122.089 110.127s-121.996-49.059-121.996-110.127v-110.127c0-60.602 54.551-109.894 121.996-109.894zM472.297 592.291c0 20.294 18.199 36.724 40.681 36.724s40.913-16.198 40.913-36.724v-110.127c0-20.294-18.199-36.724-40.681-36.724s-40.681 16.431-40.681 36.724v110.127zM716.428 519.075c-22.481 0-40.681-16.431-40.681-36.724 0-81.082-72.89-146.851-162.909-146.851s-162.909 65.769-162.909 146.851c0 20.294-18.199 36.724-40.681 36.724s-40.681-16.431-40.681-36.724c0-109.103 88.064-199.447 203.497-216.948v-39.983c0-20.294 18.199-36.724 40.681-36.724s40.681 16.431 40.681 36.724v39.983c115.386 17.548 203.497 107.846 203.497 216.948 0.233 20.34-17.967 36.724-40.495 36.724z" />
<glyph unicode="&#xe90f;" glyph-name="lookd8" d="M906.892 914.246h-789.783c-36.399 0-65.908-26.065-65.908-58.275v-815.942c0-32.209 29.417-58.275 65.815-58.275h789.876c36.399 0 65.815 26.065 65.815 58.275v815.942c0.093 32.209-29.417 58.275-65.815 58.275zM841.076 98.304h-658.153v699.345h658.153v-699.345zM446.185 506.275v-233.1c0-32.209 29.417-58.275 65.815-58.275s65.815 26.065 65.815 58.275v233.1c0 32.209-29.417 58.089-65.815 58.089s-65.815-25.879-65.815-58.089zM396.8 520.844v-29.137c0-56.367 51.526-101.981 115.2-101.981s115.2 45.615 115.2 101.981v29.137c0 56.367-51.526 101.981-115.2 101.981s-115.2-45.615-115.2-101.981z" />
<glyph unicode="&#xe910;" glyph-name="lookd22" d="M832 908.8h-634.88c-50.688 0-92.16-41.472-92.16-92.16v-737.28c0-50.688 41.472-92.16 92.16-92.16h634.88c50.688 0 92.16 41.472 92.16 92.16v737.28c0 50.688-41.472 92.16-92.16 92.16zM801.28 110.080h-573.44v675.84h573.44v-675.84zM453.12 528.896v0-157.696c-45.056 0-59.904-29.696-33.28-66.048l46.080-62.976c26.624-36.352 70.656-36.352 97.28 0l46.080 62.976c26.624 36.352 11.776 66.048-33.28 66.048v0 157.696c45.056 0 59.904 29.696 33.28 66.048l-46.080 63.488c-26.624 36.352-70.144 36.352-96.768 0l-46.592-63.488c-27.136-36.352-11.776-66.048 33.28-66.048z" />
<glyph unicode="&#xe911;" glyph-name="lookd32" d="M902.982 908.8h-781.964c-36.026 0-65.164-25.833-65.164-57.763v-808.588c0-31.93 29.137-57.763 65.164-57.763h781.964c36.026 0 65.164 25.833 65.164 57.763v808.727c0 31.93-29.137 57.623-65.164 57.623zM837.818 100.259h-651.636v693.155h651.636v-693.155zM626.036 576.791v28.905c0 55.855-51.2 101.097-114.036 101.097s-114.036-45.242-114.036-101.097v-28.905c0-34.351 19.363-64.559 48.873-82.804v-94.301c-29.51-18.246-48.873-48.5-48.873-82.804v-28.905c0-55.855 51.2-101.097 114.036-101.097s114.036 45.242 114.036 101.097v28.905c0 34.351-19.363 64.559-48.873 82.804v94.301c29.51 18.246 48.873 48.454 48.873 82.804z" />
<glyph unicode="&#xe912;" glyph-name="lookd42" d="M826.88 908.8h-634.88c-50.688 0-92.16-41.472-92.16-92.16v-737.28c0-50.688 41.472-92.16 92.16-92.16h634.88c50.688 0 92.16 41.472 92.16 92.16v737.28c0 50.688-41.472 92.16-92.16 92.16zM796.16 110.080h-573.44v675.84h573.44v-675.84zM407.040 519.68h128c33.792 0 61.44 27.648 61.44 61.44s-27.648 61.44-61.44 61.44h-128c-33.792 0-61.44-27.648-61.44-61.44s27.648-61.44 61.44-61.44zM407.040 253.44h204.8c33.792 0 61.44 27.648 61.44 61.44s-27.648 61.44-61.44 61.44h-204.8c-33.792 0-61.44-27.648-61.44-61.44s27.648-61.44 61.44-61.44z" />
<glyph unicode="&#xe913;" glyph-name="lookd52" d="M829.44 906.24h-634.88c-50.688 0-92.16-41.472-92.16-92.16v-737.28c0-50.688 41.472-92.16 92.16-92.16h634.88c50.688 0 92.16 41.472 92.16 92.16v737.28c0 50.688-41.472 92.16-92.16 92.16zM798.72 107.52h-573.44v675.84h573.44v-675.84zM419.328 272.896l230.4 133.12c38.912 22.528 38.912 59.392 0 81.92l-230.4 133.12c-38.912 22.528-71.168 4.096-71.168-40.96v-266.24c0-45.056 31.744-63.488 71.168-40.96zM448.512 487.936l71.168-40.96-71.168-40.96v81.92z" />
<glyph unicode="&#xe914;" glyph-name="lookd62" d="M829.44 908.8h-634.88c-50.688 0-92.16-41.472-92.16-92.16v-737.28c0-50.688 41.472-92.16 92.16-92.16h634.88c50.688 0 92.16 41.472 92.16 92.16v737.28c0 50.688-41.472 92.16-92.16 92.16zM798.72 110.080h-573.44v675.84h573.44v-675.84zM513.024 227.84c120.32 0 217.6 97.28 217.6 217.6s-97.792 217.6-217.6 217.6c-120.32 0-217.6-97.28-217.6-217.6s97.28-217.6 217.6-217.6zM513.024 530.944c47.104 0 85.504-38.4 85.504-85.504s-38.4-85.504-85.504-85.504c-47.104 0-85.504 38.4-85.504 85.504s38.4 85.504 85.504 85.504z" />
<glyph unicode="&#xe915;" glyph-name="lookd72" d="M512 906.24c-254.464 0-460.8-206.336-460.8-460.8s206.336-460.8 460.8-460.8c254.464 0 460.8 206.336 460.8 460.8s-206.336 460.8-460.8 460.8zM512 107.52c-186.88 0-337.92 151.040-337.92 337.92s151.040 337.92 337.92 337.92c186.88 0 337.92-151.040 337.92-337.92s-151.040-337.92-337.92-337.92zM565.76 460.288v161.792c0 33.792-27.648 61.44-61.44 61.44s-61.44-27.648-61.44-61.44v-184.32c0-0.512 0-1.024 0-1.536-0.512-16.384 5.632-32.768 17.92-45.056l130.56-130.56c24.064-24.064 62.976-24.064 87.040 0v0c24.064 24.064 24.064 62.976 0 87.040l-112.64 112.64z" />
<glyph unicode="&#xe916;" glyph-name="clock92" d="M512 917.344q95.648 0 182.496-37.152t149.664-100 100-149.664 37.152-182.496-37.152-182.496-100-149.664-149.664-100-182.496-37.152-182.496 37.152-149.664 100-100 149.664-37.152 182.496 37.152 182.496 100 149.664 149.664 100 182.496 37.152zM512 832q-77.984 0-149.152-30.496t-122.496-81.824-81.824-122.496-30.496-149.152 30.496-149.152 81.824-122.496 122.496-81.824 149.152-30.496 149.152 30.496 122.496 81.824 81.824 122.496 30.496 149.152-30.496 149.152-81.824 122.496-122.496 81.824-149.152 30.496zM512 746.656q17.664 0 30.176-12.512t12.512-30.176v-238.336l115.68-115.328q12.32-12.32 12.32-30.336t-12.32-30.336-30.336-12.32-30.336 12.32l-128 128q-12.32 12.32-12.32 30.336v256q0 17.664 12.512 30.176t30.176 12.512z" />
<glyph unicode="&#xe917;" glyph-name="clock322" d="M576 512v192h-128v-320h256v128zM512 960c-282.752 0-512-229.248-512-512s229.248-512 512-512 512 229.248 512 512-229.248 512-512 512zM512 64c-212.064 0-384 171.936-384 384s171.936 384 384 384 384-171.936 384-384-171.936-384-384-384z" />
<glyph unicode="&#xe918;" glyph-name="equd82" d="M592.384 902.656v-384h384c0 212.48-172.032 384-384 384zM781.312 629.76h-78.336v128c53.76 0 128-79.36 128-128h-49.664zM498.176 756.224h-61.44c-20.992 0-41.472-1.536-61.44-5.12-182.784-29.184-322.56-187.904-322.56-378.88 0-211.968 172.032-384 384-384 190.976 0 349.696 139.776 378.88 322.56 3.072 19.968 5.12 40.448 5.12 61.44v61.44h-322.56v322.56zM685.568 310.784c-27.648-111.616-128.512-194.56-248.32-194.56-141.312 0-256 114.688-256 256 0 120.32 82.944 221.184 194.56 248.32v-309.76h309.76z" />
<glyph unicode="&#xe919;" glyph-name="preson9" d="M512.512 360.96v0c135.168 0 245.76 110.592 245.76 245.76v51.2c0 135.168-110.592 245.76-245.76 245.76v0c-135.168 0-245.76-110.592-245.76-245.76v-51.2c0-135.168 110.592-245.76 245.76-245.76zM389.632 657.92c0 67.584 55.296 122.88 122.88 122.88s122.88-55.296 122.88-122.88v-51.2c0-67.584-55.296-122.88-122.88-122.88s-122.88 55.296-122.88 122.88v51.2zM955.904 123.392c-1.536 1.536-3.072 3.072-4.608 4.608-115.2 111.104-271.872 179.2-444.416 179.2-164.864 0-315.392-62.464-429.056-165.376-4.608-3.072-9.216-7.168-12.8-11.776-8.704-10.752-13.824-24.576-13.824-39.424 0-34.304 27.648-61.952 61.952-61.952 13.312 0 25.6 4.096 35.328 11.264 4.608 3.072 8.704 7.168 12.8 11.776 91.648 82.432 212.48 132.608 345.6 132.608 138.24 0 264.192-54.272 356.864-142.848 2.56-2.56 5.12-5.12 7.68-7.68 10.752-8.704 24.064-13.824 38.912-13.824 34.304 0 61.44 27.648 61.44 61.44 0.512 16.384-5.632 31.232-15.872 41.984z" />
<glyph unicode="&#xe91a;" glyph-name="classify222" d="M877.728 182.848v-73.152q0-14.848-10.848-25.728t-25.728-10.848h-804.576q-14.848 0-25.728 10.848t-10.848 25.728v73.152q0 14.848 10.848 25.728t25.728 10.848h804.576q14.848 0 25.728-10.848t10.848-25.728zM877.728 475.424v-73.152q0-14.848-10.848-25.728t-25.728-10.848h-804.576q-14.848 0-25.728 10.848t-10.848 25.728v73.152q0 14.848 10.848 25.728t25.728 10.848h804.576q14.848 0 25.728-10.848t10.848-25.728zM877.728 768v-73.152q0-14.848-10.848-25.728t-25.728-10.848h-804.576q-14.848 0-25.728 10.848t-10.848 25.728v73.152q0 14.848 10.848 25.728t25.728 10.848h804.576q14.848 0 25.728-10.848t10.848-25.728z" />
<glyph unicode="&#xe91b;" glyph-name="icond1" horiz-adv-x="791" d="M621.899 509.026c3.879-4.267 9.568-6.853 16.937-7.758v41.244c-3.879 0.776-7.628 1.81-11.248 2.974s-6.723 2.844-9.309 4.913c-2.586 2.069-4.784 4.784-6.335 7.887-1.552 3.232-2.327 7.24-2.327 12.024 0 4.137 0.776 7.887 2.327 11.248s3.62 6.206 6.206 8.533c2.586 2.327 5.689 4.137 9.309 5.43s7.37 1.939 11.378 1.939v10.861h5.43v-10.861c4.137 0 7.887-0.776 11.507-2.198s6.723-3.491 9.438-6.077c2.715-2.586 4.913-5.818 6.465-9.568s2.198-7.887 2.198-12.412h-8.792c-0.129 6.982-2.069 12.541-5.818 16.679s-8.792 6.206-14.869 6.206v-40.081c4.008-0.776 7.887-1.81 11.766-3.103 3.879-1.164 7.24-2.844 10.343-5.042 2.974-2.198 5.43-4.784 7.37-8.016 1.81-3.232 2.844-7.24 2.844-12.154 0-4.525-0.905-8.533-2.715-12.024s-4.267-6.335-7.24-8.663c-2.974-2.327-6.465-4.008-10.343-5.172s-7.758-1.681-11.895-1.681v-11.895h-5.43v12.024c-10.861 1.034-18.747 4.267-23.79 9.568-4.913 5.43-7.628 13.317-8.016 23.919h8.792c-0.129-8.275 1.939-14.481 5.818-18.747zM630.949 588.929c-2.457-0.776-4.655-2.069-6.594-3.749s-3.362-3.879-4.396-6.465c-1.034-2.586-1.552-5.818-1.552-9.438 0-3.232 0.517-5.947 1.681-7.887 1.164-2.069 2.715-3.749 4.655-5.042s4.137-2.327 6.594-3.103c2.457-0.776 5.042-1.422 7.628-2.069v38.788c-2.844 0.129-5.56-0.259-8.016-1.034zM652.929 502.432c2.844 0.776 5.301 1.939 7.499 3.62s3.879 3.749 5.301 6.335c1.293 2.586 2.069 5.689 2.069 9.309 0 3.362-0.776 6.077-2.198 8.404-1.422 2.198-3.232 4.008-5.56 5.56-2.198 1.422-4.784 2.586-7.499 3.491-2.844 0.905-5.56 1.681-8.275 2.327v-40.081c2.974-0.129 5.818 0.259 8.663 1.034zM641.681 613.366c38.012 0 69.172-31.677 69.172-70.077s-30.901-70.077-69.172-70.077c-38.012 0-69.172 31.677-69.172 70.077s31.289 70.077 69.172 70.077zM641.681 652.929c-60.121 0-108.735-49.002-108.735-110.028s48.614-110.028 108.735-110.028 108.865 49.002 108.865 110.028-48.743 110.028-108.865 110.028v0zM221.996 171.83h-169.374c-4.396 0-7.887 3.62-7.887 7.887v37.236c0 4.396 3.62 7.887 7.887 7.887h169.374c4.396 0 7.887-3.62 7.887-7.887v-37.236c0-4.267-3.62-7.887-7.887-7.887zM221.996 254.19h-169.374c-4.396 0-7.887 3.62-7.887 7.887v37.236c0 4.396 3.62 7.887 7.887 7.887h169.374c4.396 0 7.887-3.62 7.887-7.887v-37.236c0-4.396-3.62-7.887-7.887-7.887zM221.996 336.42h-169.374c-4.396 0-7.887 3.62-7.887 7.887v37.236c0 4.396 3.62 7.887 7.887 7.887h169.374c4.396 0 7.887-3.62 7.887-7.887v-37.236c0-4.267-3.62-7.887-7.887-7.887zM726.756 171.83h-169.374c-4.396 0-7.887 3.62-7.887 7.887v37.236c0 4.396 3.62 7.887 7.887 7.887h169.374c4.396 0 7.887-3.62 7.887-7.887v-37.236c0-4.267-3.491-7.887-7.887-7.887zM726.756 254.19h-169.374c-4.396 0-7.887 3.62-7.887 7.887v37.236c0 4.396 3.62 7.887 7.887 7.887h169.374c4.396 0 7.887-3.62 7.887-7.887v-37.236c0-4.396-3.491-7.887-7.887-7.887zM726.756 336.42h-169.374c-4.396 0-7.887 3.62-7.887 7.887v37.236c0 4.396 3.62 7.887 7.887 7.887h169.374c4.396 0 7.887-3.62 7.887-7.887v-37.236c0-4.267-3.491-7.887-7.887-7.887zM221.996 419.168h-169.374c-4.396 0-7.887 3.62-7.887 7.887v37.236c0 4.396 3.62 7.887 7.887 7.887h169.374c4.396 0 7.887-3.62 7.887-7.887v-37.236c0-4.396-3.62-7.887-7.887-7.887zM477.867 171.83h-169.374c-4.396 0-7.887 3.62-7.887 7.887v37.236c0 4.396 3.62 7.887 7.887 7.887h169.374c4.396 0 7.887-3.62 7.887-7.887v-37.236c0.129-4.267-3.491-7.887-7.887-7.887zM477.867 254.19h-169.374c-4.396 0-7.887 3.62-7.887 7.887v37.236c0 4.396 3.62 7.887 7.887 7.887h169.374c4.396 0 7.887-3.62 7.887-7.887v-37.236c0.129-4.396-3.491-7.887-7.887-7.887zM477.867 336.42h-169.374c-4.396 0-7.887 3.62-7.887 7.887v37.236c0 4.396 3.62 7.887 7.887 7.887h169.374c4.396 0 7.887-3.62 7.887-7.887v-37.236c0.129-4.267-3.491-7.887-7.887-7.887zM477.867 419.168h-169.374c-4.396 0-7.887 3.62-7.887 7.887v37.236c0 4.396 3.62 7.887 7.887 7.887h169.374c4.396 0 7.887-3.62 7.887-7.887v-37.236c0.129-4.396-3.491-7.887-7.887-7.887zM477.867 502.562h-169.374c-4.396 0-7.887 3.62-7.887 7.887v37.236c0 4.396 3.62 7.887 7.887 7.887h169.374c4.396 0 7.887-3.62 7.887-7.887v-37.236c0.129-4.267-3.491-7.887-7.887-7.887zM477.867 584.921h-169.374c-4.396 0-7.887 3.62-7.887 7.887v37.236c0 4.396 3.62 7.887 7.887 7.887h169.374c4.396 0 7.887-3.62 7.887-7.887v-37.236c0.129-4.396-3.491-7.887-7.887-7.887zM477.867 667.152h-169.374c-4.396 0-7.887 3.62-7.887 7.887v37.236c0 4.396 3.62 7.887 7.887 7.887h169.374c4.396 0 7.887-3.62 7.887-7.887v-37.236c0.129-4.267-3.491-7.887-7.887-7.887z" />
<glyph unicode="&#xe91c;" glyph-name="caret-left" horiz-adv-x="352" d="M365.728 694.848v-512q0-14.848-10.848-25.728t-25.728-10.848-25.728 10.848l-256 256q-10.848 10.848-10.848 25.728t10.848 25.728l256 256q10.848 10.848 25.728 10.848t25.728-10.848 10.848-25.728z" />
<glyph unicode="&#xe91d;" glyph-name="caret-right2" horiz-adv-x="352" d="M329.152 438.848q0-14.848-10.848-25.728l-256-256q-10.848-10.848-25.728-10.848t-25.728 10.848-10.848 25.728v512q0 14.848 10.848 25.728t25.728 10.848 25.728-10.848l256-256q10.848-10.848 10.848-25.728z" />
<glyph unicode="&#xe91e;" glyph-name="caret-up2" horiz-adv-x="576" d="M585.152 256q0-14.848-10.848-25.728t-25.728-10.848h-512q-14.848 0-25.728 10.848t-10.848 25.728 10.848 25.728l256 256q10.848 10.848 25.728 10.848t25.728-10.848l256-256q10.848-10.848 10.848-25.728z" />
<glyph unicode="&#xe91f;" glyph-name="sort-desc2" horiz-adv-x="576" d="M585.152 329.152q0-14.848-10.848-25.728l-256-256q-10.848-10.848-25.728-10.848t-25.728 10.848l-256 256q-10.848 10.848-10.848 25.728t10.848 25.728 25.728 10.848h512q14.848 0 25.728-10.848t10.848-25.728z" />
<glyph unicode="&#xe920;" glyph-name="cr-mn1-12" d="M119.968 731.872c-39.2 0-70.944-31.744-70.944-70.944v-425.472c0-39.2 31.744-70.944 70.944-70.944h567.296c39.2 0 70.944 31.744 70.944 70.944v92.672l166.048-55.36c3.648-1.248 7.456-1.824 11.2-1.824 7.328 0 14.624 2.272 20.768 6.656 9.216 6.656 14.688 17.408 14.688 28.736v283.648c0 11.424-5.472 22.080-14.688 28.736s-21.216 8.544-31.968 4.832l-166.048-55.296v92.608c0 39.2-31.744 70.944-70.944 70.944h-567.296zM687.168 271.008c0-19.616-15.872-35.488-35.488-35.488h-496.352c-19.616 0-35.488 15.872-35.488 35.488v354.528c0 19.616 15.872 35.488 35.488 35.488h496.352c19.616 0 35.488-15.872 35.488-35.488v-354.528zM899.936 355.616l-141.824 47.264v90.688l141.824 47.264v-185.184z" />
<glyph unicode="&#xe921;" glyph-name="ib-acard2" d="M184.672 478.048c-69.92 0-126.816 56.896-126.816 126.816s56.896 126.816 126.816 126.816 126.816-56.896 126.816-126.816-56.896-126.816-126.816-126.816zM184.672 674.464c-38.4 0-69.568-31.232-69.568-69.568s31.232-69.568 69.568-69.568 69.568 31.232 69.568 69.568-31.232 69.568-69.568 69.568zM514.56 478.048c-69.92 0-126.816 56.896-126.816 126.816s56.896 126.816 126.816 126.816 126.816-56.896 126.816-126.816-56.896-126.816-126.816-126.816zM514.56 674.464c-38.4 0-69.568-31.232-69.568-69.568s31.232-69.568 69.568-69.568 69.568 31.232 69.568 69.568-31.232 69.568-69.568 69.568zM844.448 478.048c-69.92 0-126.816 56.896-126.816 126.816s56.896 126.816 126.816 126.816 126.816-56.896 126.816-126.816-56.896-126.816-126.816-126.816zM844.448 674.464c-38.4 0-69.568-31.232-69.568-69.568s31.232-69.568 69.568-69.568 69.568 31.232 69.568 69.568-31.232 69.568-69.568 69.568zM184.672 178.688c-69.92 0-126.816 56.896-126.816 126.816s56.896 126.816 126.816 126.816 126.816-56.896 126.816-126.816-56.896-126.816-126.816-126.816zM184.672 375.136c-38.4 0-69.568-31.232-69.568-69.568s31.232-69.568 69.568-69.568 69.568 31.232 69.568 69.568c0 38.4-31.232 69.568-69.568 69.568zM514.56 178.688c-69.92 0-126.816 56.896-126.816 126.816s56.896 126.816 126.816 126.816 126.816-56.896 126.816-126.816-56.896-126.816-126.816-126.816zM514.56 375.136c-38.4 0-69.568-31.232-69.568-69.568s31.232-69.568 69.568-69.568 69.568 31.232 69.568 69.568c0 38.4-31.232 69.568-69.568 69.568zM844.448 178.688c-69.92 0-126.816 56.896-126.816 126.816s56.896 126.816 126.816 126.816 126.816-56.896 126.816-126.816-56.896-126.816-126.816-126.816zM844.448 375.136c-38.4 0-69.568-31.232-69.568-69.568s31.232-69.568 69.568-69.568 69.568 31.232 69.568 69.568c0 38.4-31.232 69.568-69.568 69.568z" />
<glyph unicode="&#xe922;" glyph-name="ib-pause2" d="M416.096 592.096c-26.464 0-47.968-21.44-47.968-47.968v-191.776c0-26.464 21.44-47.968 47.968-47.968s47.968 21.44 47.968 47.968v191.776c0 26.464-21.44 47.968-47.968 47.968zM607.904 592.096c-26.464 0-47.968-21.44-47.968-47.968v-191.776c0-26.464 21.44-47.968 47.968-47.968s47.968 21.44 47.968 47.968v191.776c0 26.464-21.44 47.968-47.968 47.968zM512 831.84c-211.808 0-383.552-171.744-383.552-383.552s171.744-383.552 383.552-383.552c211.808 0 383.552 171.744 383.552 383.552s-171.744 383.552-383.552 383.552zM512 160.544c-158.88 0-287.68 128.8-287.68 287.68s128.8 287.68 287.68 287.68c158.88 0 287.68-128.8 287.68-287.68s-128.8-287.68-287.68-287.68z" />
<glyph unicode="&#xe923;" glyph-name="ib-replay2" d="M678.624 448.064c0 3.136 0 6.144-0.672 9.28s-1.76 5.856-2.912 8.704c-0.864 2.112-0.96 4.32-2.112 6.368-0.576 0.96-1.536 1.472-2.112 2.4-1.536 2.272-3.52 4.096-5.408 6.080-2.72 2.784-5.28 5.408-8.48 7.456-0.672 0.448-1.024 1.088-1.696 1.472l-167.36 96.928c-1.088 0.576-2.272 0.576-3.36 1.088-2.272 1.088-4.672 1.696-7.104 2.4-3.872 1.184-7.68 2.208-11.616 2.336-0.736 0.064-1.376 0.448-2.112 0.448-1.536 0-2.848-0.736-4.384-0.864-4.096-0.352-7.968-1.024-11.84-2.4-2.336-0.8-4.384-1.984-6.592-3.136-3.232-1.76-6.144-3.584-8.928-5.984-2.208-1.888-3.872-4.16-5.696-6.432-1.376-1.76-3.296-3.008-4.448-5.056-0.576-1.024-0.576-2.112-1.024-3.136-1.312-2.72-2.048-5.568-2.848-8.544-0.864-3.296-1.76-6.432-1.984-9.792-0.064-1.024-0.576-1.888-0.576-2.912v-193.376c0-1.024 0.512-1.888 0.576-2.912 0.224-3.136 1.024-6.208 1.888-9.28 0.864-3.232 1.696-6.368 3.136-9.28 0.448-0.864 0.448-1.824 0.96-2.72 1.024-1.76 2.624-2.784 3.872-4.32 2.048-2.784 4.096-5.344 6.72-7.616 2.272-1.984 4.768-3.424 7.392-4.96 2.72-1.6 5.344-3.072 8.416-4.096 3.136-1.088 6.304-1.536 9.568-1.888 2.048-0.288 3.808-1.184 5.92-1.184 1.024 0 1.888 0.512 2.912 0.576 3.136 0.224 6.208 1.024 9.376 1.888s6.304 1.6 9.216 3.136c0.864 0.448 1.888 0.448 2.784 0.96l167.36 96.928c0.672 0.352 1.024 1.024 1.696 1.472 3.136 2.048 5.792 4.672 8.48 7.456 1.888 1.984 3.872 3.872 5.408 6.144 0.576 0.864 1.536 1.376 2.112 2.336 1.184 2.048 1.312 4.256 2.112 6.368 1.184 2.912 2.336 5.632 2.912 8.704s0.672 6.144 0.672 9.28zM226.304 496.352c20.416 121.344 116 217.024 237.344 237.408v97.728c-174.88-21.856-313.184-160.256-335.072-335.072h97.728zM226.304 399.648h-97.728c21.856-174.816 160.192-313.28 335.072-335.072v97.728c-121.344 20.416-216.928 116.064-237.344 237.408zM797.696 496.352h97.728c-21.856 174.816-160.192 313.28-335.072 335.072v-97.728c121.344-20.416 216.928-116.064 237.344-237.408zM797.696 399.648c-20.48-121.344-116-217.024-237.344-237.408v-97.728c174.88 21.856 313.184 160.32 335.072 335.072h-97.728z" />
<glyph unicode="&#xe924;" glyph-name="ib-time3" d="M514.56 839.104c-234.848 0-425.984-191.136-425.984-425.984s191.136-425.984 425.984-425.984c234.848 0 425.984 191.136 425.984 425.984s-191.136 425.984-425.984 425.984zM514.56 40.288c-205.536 0-372.736 167.2-372.736 372.736s167.2 372.736 372.736 372.736c205.536 0 372.736-167.2 372.736-372.736s-167.2-372.736-372.736-372.736zM542.496 537.44v176.8h-55.872v-176.8c-32.48-11.552-55.872-42.272-55.872-78.688s23.392-67.136 55.872-78.784v-39.584h55.872v39.584c32.48 11.552 55.872 42.272 55.872 78.784s-23.392 67.136-55.872 78.688zM479.392 909.376h70.368v-80.736h-70.368v80.736zM815.616 809.312l41.12-34.304-49.6-59.392-41.12 34.304 49.6 59.392zM802.464 863.232l109.632-91.584-45.92-55.008-109.632 91.584 45.92 55.008z" />
<glyph unicode="&#xe925;" glyph-name="ib-carryout" d="M289.111 64.507c-87.265 0-158.28 71.014-158.28 158.28s71.014 158.28 158.28 158.28 158.28-71.014 158.28-158.28-71.014-158.28-158.28-158.28zM289.111 304.333c-44.969 0-81.551-36.582-81.551-81.551s36.582-81.551 81.551-81.551 81.551 36.582 81.551 81.551-36.582 81.551-81.551 81.551zM610.493 592.133c26.491 0 47.964-21.473 47.964-47.964v-191.862c0-26.491-21.473-47.964-47.964-47.964v0c-26.491 0-47.964 21.473-47.964 47.964v191.857c-0.005 26.491 21.473 47.969 47.964 47.969v0zM596.444 530.115c18.729-18.729 18.729-49.101 0-67.835l-169.585-169.585c-18.734-18.734-49.101-18.734-67.835 0v0c-18.734 18.729-18.734 49.096 0 67.835l169.585 169.585c18.729 18.734 49.101 18.734 67.835 0v0zM658.458 544.164c0-26.491-21.473-47.964-47.964-47.964h-191.867c-26.491 0-47.964 21.473-47.964 47.964v0c0 26.491 21.473 47.964 47.964 47.964h191.862c26.496 0.005 47.969-21.473 47.969-47.964v0zM514.053 830.95c-211.63 0-383.222-171.587-383.222-383.222h95.805c0 158.725 128.691 287.416 287.416 287.416s287.416-128.691 287.416-287.416-128.691-287.416-287.416-287.416v-95.805c211.635 0 383.222 171.587 383.222 383.222s-171.587 383.222-383.222 383.222zM226.76 448.236c0-26.49-21.474-47.964-47.964-47.964s-47.964 21.474-47.964 47.964c0 26.49 21.474 47.964 47.964 47.964s47.964-21.474 47.964-47.964zM562.524 112.471c0-26.49-21.474-47.964-47.964-47.964s-47.964 21.474-47.964 47.964c0 26.49 21.474 47.964 47.964 47.964s47.964-21.474 47.964-47.964z" />
<glyph unicode="&#xe926;" glyph-name="gf-correction" d="M964.956 692.342c-10.962 47.437-33.526 47.887-65.756 15.626s-150.902-150.902-150.902-150.902c-33.72-33.72-88.407-33.72-122.071 0-33.72 33.664-33.72 88.351 0 122.071 0 0 119.624 119.654 150.932 150.932 31.304 31.278 33.551 52.383-15.683 65.756-23.69 6.436-48.532 10.035-74.245 10.035-158.909 0-287.754-128.819-287.754-287.754 0-25.713 3.681-50.529 10.035-74.245l-313.247-313.216c-56.177-56.177-56.177-147.287 0.026-203.484 56.202-56.202 147.282-56.172 203.479 0.031l313.19 313.19c23.747-6.323 48.527-10.030 74.271-10.030 158.915 0 287.754 128.814 287.754 287.754 0 25.733-4.495 50.294-10.030 74.235zM259.077 67.881c-33.72-33.72-88.407-33.72-122.071 0-33.72 33.664-33.72 88.351 0 122.071l295.173 295.173c27.259-52.157 69.944-94.817 122.071-122.071l-295.173-295.173zM687.227 387.896c-127.13 0-230.205 103.076-230.205 230.205s103.076 230.205 230.205 230.205c8.545 0 16.973-0.563 25.267-1.464l-127.017-127.017c-56.177-56.172-56.177-147.282 0.031-203.479 56.202-56.202 147.277-56.172 203.479 0.031l126.986 126.991c0.932-8.289 1.464-16.722 1.464-25.262-0.005-127.135-103.076-230.211-230.211-230.211z" />
<glyph unicode="&#xe927;" glyph-name="gf-tag" d="M774.579 910.899h-520.038c-31.908 0-57.784-25.871-57.784-57.784v-808.95c0-23.363 14.080-44.436 35.661-53.381 21.612-8.94 46.413-4.004 62.976 12.529l219.167 219.167 219.167-219.167c11.064-11.059 25.815-16.927 40.852-16.927 7.45 0 14.956 1.439 22.118 4.398 21.586 8.945 35.661 30.019 35.661 53.381v808.955c0.005 31.908-25.866 57.779-57.779 57.779zM774.579 87.506c0-27.991-12.923-30.413-28.918-14.418s-202.209 202.209-202.209 202.209c-11.284 11.284-17.577 14.444-28.892 14.444-10.045 0-17.608-3.159-28.892-14.444 0 0-189.599-189.599-202.235-202.235-12.641-12.641-28.892-10.834-28.892 14.444 0 17.971 0 382.92 0 592.266h520.038c0-208.783 0-572.375 0-592.266zM774.579 737.551h-520.038c0 52.956 0 86.671 0 86.671 0 15.969 12.923 28.892 28.892 28.892h462.259c15.969 0 28.892-12.923 28.892-28.892-0.005 0.005-0.005-33.71-0.005-86.671z" />
<glyph unicode="&#xe928;" glyph-name="heart13" d="M880.128 747.264c-85.6 78.528-224.416 78.528-310.016 0l-58.112-53.344-58.176 53.344c-85.6 78.528-224.352 78.528-309.952 0-96.32-88.416-96.32-231.424 0-319.808l368.128-337.856 368.128 337.856c96.256 88.384 96.256 231.424 0 319.808z" />
<glyph unicode="&#xe929;" glyph-name="gf-collection2" d="M736.032 819.2c-63.040 0-120.096-25.6-161.44-66.848l-66.848-66.4-66.848 66.4c-41.312 41.312-98.368 66.848-161.44 66.848-126.016 0-228.288-102.176-228.288-228.288 0-63.040 22.368-103.584 82.080-163.168l334.112-334.176c22.304-22.304 58.368-22.304 80.672 0l333.248 333.312c58.944 58.944 82.944 101.024 82.944 164.064 0 126.016-102.176 228.288-228.288 228.288zM850.208 476.832l-342.368-342.368-342.368 342.368c-21.216 21.216-57.056 58.208-57.056 114.112 0 94.56 76.64 171.232 171.232 171.232 50.848 0 96.48-22.080 127.84-57.344 7.68-8.64 65.6-85.28 100.416-85.28 36.128 0 93.024 77.024 100.928 85.856 31.296 34.88 76.8 56.832 127.328 56.832 94.56 0 171.232-76.64 171.232-171.232 0-56.384-28.16-85.28-57.056-114.112z" />
<glyph unicode="&#xe92a;" glyph-name="pause" d="M598.016 745.984h169.984v-596.011h-169.984v596.011zM256 150.016v596.011h169.984v-596.011h-169.984z" />
<glyph unicode="&#xe92b;" glyph-name="play_arrow" d="M342.016 745.984l468.011-297.984-468.011-297.984v596.011z" />
<glyph unicode="&#xe92c;" glyph-name="stop72" d="M256 704h512v-512h-512v512z" />
<glyph unicode="&#xe92d;" glyph-name="expand_less2" d="M512 617.984l256-256-60-60-196 196-196-196-60 60z" />
<glyph unicode="&#xe92e;" glyph-name="expand_more2" d="M708 594.016l60-60-256-256-256 256 60 60 196-196z" />
<glyph unicode="&#xe92f;" glyph-name="chevron_left2" d="M658.016 644l-196-196 196-196-60-60-256 256 256 256z" />
<glyph unicode="&#xe930;" glyph-name="chevron_right22" d="M425.984 704l256-256-256-256-60 60 196 196-196 196z" />
<glyph unicode="&#xe931;" glyph-name="gfbottom2" d="M805.792 675.072l-291.168-306.304-291.296 306.304h-169.152l460.352-472.448 460.352 472.448z" />
<glyph unicode="&#xe932;" glyph-name="gfright2" d="M276.832 898.752v-168.352l304.928-289.856-304.928-289.984v-168.384l470.336 458.272z" />
<glyph unicode="&#xe933;" glyph-name="gfleft2" d="M750.336 898.688l-471.52-459.84 471.52-459.84v168.96l-305.696 290.944 305.696 290.848z" />
<glyph unicode="&#xe934;" glyph-name="gftop2" d="M514.56 675.008l-460.16-471.872h169.088l291.168 305.92 291.040-305.92h169.056z" />
<glyph unicode="&#xe935;" glyph-name="chevron-down2" d="M961.696 498.336l-424-423.424q-10.816-10.816-25.76-10.816t-25.76 10.816l-424 423.424q-10.816 10.816-10.816 25.952t10.816 25.952l94.88 94.272q10.816 10.816 25.76 10.816t25.76-10.816l303.392-303.392 303.392 303.392q10.816 10.816 25.76 10.816t25.76-10.816l94.88-94.272q10.816-10.816 10.816-25.952t-10.816-25.952z" />
<glyph unicode="&#xe936;" glyph-name="chevron-left" d="M815.392 787.968l-303.392-303.392 303.392-303.392q10.816-10.816 10.816-25.76t-10.816-25.76l-94.88-94.88q-10.816-10.816-25.76-10.816t-25.76 10.816l-424 424q-10.816 10.816-10.816 25.76t10.816 25.76l424 424q10.816 10.816 25.76 10.816t25.76-10.816l94.88-94.88q10.816-10.816 10.816-25.76t-10.816-25.76z" />
<glyph unicode="&#xe937;" glyph-name="chevron-up22" d="M961.696 199.456l-94.88-94.272q-10.816-10.816-25.76-10.816t-25.76 10.816l-303.392 303.392-303.392-303.392q-10.816-10.816-25.76-10.816t-25.76 10.816l-94.88 94.272q-10.816 10.816-10.816 25.952t10.816 25.952l424 423.424q10.816 10.816 25.76 10.816t25.76-10.816l424-423.424q10.816-10.816 10.816-25.952t-10.816-25.952z" />
<glyph unicode="&#xe938;" glyph-name="chevron-right2" d="M778.816 458.816l-424-424q-10.816-10.816-25.76-10.816t-25.76 10.816l-94.88 94.88q-10.816 10.816-10.816 25.76t10.816 25.76l303.392 303.392-303.392 303.392q-10.816 10.816-10.816 25.76t10.816 25.76l94.88 94.88q10.816 10.816 25.76 10.816t25.76-10.816l424-424q10.816-10.816 10.816-25.76t-10.816-25.76z" />
<glyph unicode="&#xe939;" glyph-name="angle-double-down2" horiz-adv-x="672" d="M614.272 457.152q0-7.424-5.728-13.152l-266.272-266.272q-5.728-5.728-13.152-5.728t-13.152 5.728l-266.272 266.272q-5.728 5.728-5.728 13.152t5.728 13.152l28.576 28.576q5.728 5.728 13.152 5.728t13.152-5.728l224.576-224.576 224.576 224.576q5.728 5.728 13.152 5.728t13.152-5.728l28.576-28.576q5.728-5.728 5.728-13.152zM614.272 676.576q0-7.424-5.728-13.152l-266.272-266.272q-5.728-5.728-13.152-5.728t-13.152 5.728l-266.272 266.272q-5.728 5.728-5.728 13.152t5.728 13.152l28.576 28.576q5.728 5.728 13.152 5.728t13.152-5.728l224.576-224.576 224.576 224.576q5.728 5.728 13.152 5.728t13.152-5.728l28.576-28.576q5.728-5.728 5.728-13.152z" />
<glyph unicode="&#xe93a;" glyph-name="angle-double-right2" horiz-adv-x="576" d="M340 402.272q0-7.424-5.728-13.152l-266.272-266.272q-5.728-5.728-13.152-5.728t-13.152 5.728l-28.576 28.576q-5.728 5.728-5.728 13.152t5.728 13.152l224.576 224.576-224.576 224.576q-5.728 5.728-5.728 13.152t5.728 13.152l28.576 28.576q5.728 5.728 13.152 5.728t13.152-5.728l266.272-266.272q5.728-5.728 5.728-13.152zM559.424 402.272q0-7.424-5.728-13.152l-266.272-266.272q-5.728-5.728-13.152-5.728t-13.152 5.728l-28.576 28.576q-5.728 5.728-5.728 13.152t5.728 13.152l224.576 224.576-224.576 224.576q-5.728 5.728-5.728 13.152t5.728 13.152l28.576 28.576q5.728 5.728 13.152 5.728t13.152-5.728l266.272-266.272q5.728-5.728 5.728-13.152z" />
<glyph unicode="&#xe93b;" glyph-name="angle-double-up2" horiz-adv-x="672" d="M614.272 201.152q0-7.424-5.728-13.152l-28.576-28.576q-5.728-5.728-13.152-5.728t-13.152 5.728l-224.576 224.576-224.576-224.576q-5.728-5.728-13.152-5.728t-13.152 5.728l-28.576 28.576q-5.728 5.728-5.728 13.152t5.728 13.152l266.272 266.272q5.728 5.728 13.152 5.728t13.152-5.728l266.272-266.272q5.728-5.728 5.728-13.152zM614.272 420.576q0-7.424-5.728-13.152l-28.576-28.576q-5.728-5.728-13.152-5.728t-13.152 5.728l-224.576 224.576-224.576-224.576q-5.728-5.728-13.152-5.728t-13.152 5.728l-28.576 28.576q-5.728 5.728-5.728 13.152t5.728 13.152l266.272 266.272q5.728 5.728 13.152 5.728t13.152-5.728l266.272-266.272q5.728-5.728 5.728-13.152z" />
<glyph unicode="&#xe93c;" glyph-name="angle-double-left2" horiz-adv-x="576" d="M358.272 164.576q0-7.424-5.728-13.152l-28.576-28.576q-5.728-5.728-13.152-5.728t-13.152 5.728l-266.272 266.272q-5.728 5.728-5.728 13.152t5.728 13.152l266.272 266.272q5.728 5.728 13.152 5.728t13.152-5.728l28.576-28.576q5.728-5.728 5.728-13.152t-5.728-13.152l-224.576-224.576 224.576-224.576q5.728-5.728 5.728-13.152zM577.728 164.576q0-7.424-5.728-13.152l-28.576-28.576q-5.728-5.728-13.152-5.728t-13.152 5.728l-266.272 266.272q-5.728 5.728-5.728 13.152t5.728 13.152l266.272 266.272q5.728 5.728 13.152 5.728t13.152-5.728l28.576-28.576q5.728-5.728 5.728-13.152t-5.728-13.152l-224.576-224.576 224.576-224.576q5.728-5.728 5.728-13.152z" />
<glyph unicode="&#xe93d;" glyph-name="gf-wrong32" d="M177.312 854.752l-77.536-77.536 332.224-332.224-329.216-329.216 77.152-77.152 329.216 329.216 334.912-334.912 77.536 77.536-334.912 334.912 337.568 337.568-77.152 77.152-337.568-337.568z" />
<glyph unicode="&#xe93e;" glyph-name="gf-right32" d="M461.984 174.144l-360.16 275.168-51.36-79.424 435.712-331.712 487.2 777.952-78.272 41.76z" />
<glyph unicode="&#xe93f;" glyph-name="gf-right2" d="M512.502 908.728c-254.715 0-461.23-206.403-461.23-461.23s206.515-461.23 461.23-461.23 461.23 206.403 461.23 461.23-206.52 461.23-461.23 461.23zM696.791 608.067c0 0-203.459-354.57-206.976-357.74-11.617-10.952-29.865-10.378-40.735 1.152l-131.794 121.651c-10.895 11.53-10.291 29.978 1.326 40.648 11.617 10.952 29.865 10.378 40.76-1.152l103.142-95.13 184.346 319.401c7.956 13.548 25.569 18.447 39.378 10.378 13.778-7.788 18.509-25.661 10.552-39.209z" />
<glyph unicode="&#xe940;" glyph-name="gf-right1" d="M512.502 908.728c-254.715 0-461.23-206.403-461.23-461.23s206.515-461.23 461.23-461.23 461.23 206.403 461.23 461.23-206.52 461.23-461.23 461.23zM512.502 43.924c-222.889 0-403.574 180.746-403.574 403.574s180.685 403.574 403.574 403.574 403.574-180.746 403.574-403.574-180.685-403.574-403.574-403.574zM686.239 647.27c-13.809 8.069-31.421 3.169-39.378-10.378l-184.346-319.401-103.142 95.13c-10.895 11.53-29.143 12.109-40.76 1.152-11.617-10.665-12.221-29.117-1.326-40.648l131.794-121.651c10.87-11.53 29.117-12.109 40.735-1.152 3.517 3.169 206.976 357.74 206.976 357.74 7.956 13.553 3.226 31.427-10.552 39.209z" />
<glyph unicode="&#xe941;" glyph-name="radio_button" d="M512 105.984q140 0 240.992 100.992t100.992 240.992-100.992 240.992-240.992 100.992-240.992-100.992-100.992-240.992 100.992-240.992 240.992-100.992zM512 873.984q176 0 301.024-125.024t125.024-301.024-125.024-301.024-301.024-125.024-301.024 125.024-125.024 301.024 125.024 301.024 301.024 125.024z" />
<glyph unicode="&#xe942;" glyph-name="check_box_outline" d="M809.984 832q34.016 0 60-25.984t25.984-60v-596q0-34.016-25.984-60t-60-25.984h-596q-34.016 0-60 25.984t-25.984 60v596q0 34.016 25.984 60t60 25.984h596zM809.984 745.984h-596v-596h596v596z" />
<glyph unicode="&#xe943;" glyph-name="check_box2" d="M425.984 233.984l384 384-60 61.984-324-324-152.032 152.032-60-60zM809.984 832q36 0 61.024-25.984t24.992-60v-596q0-34.016-24.992-60t-61.024-25.984h-596q-36 0-61.024 25.984t-24.992 60v596q0 34.016 24.992 60t61.024 25.984h596z" />
<glyph unicode="&#xe944;" glyph-name="circle2" d="M512 939.52c-271.456 0-491.52-220.064-491.52-491.52s220.064-491.52 491.52-491.52c271.424 0 491.52 220.064 491.52 491.584 0 271.424-220.096 491.456-491.52 491.456zM512 58.944c-214.88 0-389.12 174.176-389.12 389.12s174.176 389.056 389.12 389.056c214.88 0 389.184-174.176 389.184-389.12s-174.272-389.056-389.184-389.056z" />
<glyph unicode="&#xe945;" glyph-name="add2" d="M512-64c-282.752 0-512 229.216-512 512s229.248 512 512 512c282.784 0 512-229.216 512-512s-229.216-512-512-512zM512 832c-212.064 0-384-171.936-384-384s171.936-384 384-384c212.096 0 384 171.936 384 384s-171.904 384-384 384zM576 192h-128v192h-192v128h192v192h128v-192h192v-128h-192v-192z" />
<glyph unicode="&#xe946;" glyph-name="cr-mn012" d="M105.984-12.448h305.888c28.16 0 50.976 22.816 50.976 50.976v305.888c0 28.16-22.816 50.976-50.976 50.976h-305.888c-28.16 0-50.976-22.816-50.976-50.976v-305.888c0-28.16 22.816-50.976 50.976-50.976zM156.96 293.44h203.936v-203.936h-203.936v203.936zM105.984 497.376h305.888c28.16 0 50.976 22.816 50.976 50.976v305.888c0 28.16-22.816 50.976-50.976 50.976h-305.888c-28.16 0-50.976-22.816-50.976-50.976v-305.888c0-28.16 22.816-50.976 50.976-50.976zM156.96 803.168h203.936v-203.936h-203.936v203.936zM615.776-12.448h305.888c28.16 0 50.976 22.816 50.976 50.976v305.888c0 28.16-22.816 50.976-50.976 50.976h-305.888c-28.16 0-50.976-22.816-50.976-50.976v-305.888c0-28.16 22.816-50.976 50.976-50.976zM666.784 293.44h203.936v-203.936h-203.936v203.936zM615.776 497.376h305.888c28.16 0 50.976 22.816 50.976 50.976v305.888c0 28.16-22.816 50.976-50.976 50.976h-305.888c-28.16 0-50.976-22.816-50.976-50.976v-305.888c0-28.16 22.816-50.976 50.976-50.976zM666.784 803.168h203.936v-203.936h-203.936v203.936z" />
<glyph unicode="&#xe947;" glyph-name="cr-mn032" d="M906.080 908.96h-788.192c-24.224 0-43.808-19.616-43.808-43.808v-656.832c0-24.224 19.616-43.808 43.808-43.808h87.552v-131.36c0-17.696 10.688-33.728 26.976-40.448 5.408-2.272 11.104-3.36 16.736-3.36 11.424 0 22.592 4.448 30.944 12.8l162.304 162.304h463.52c24.224 0 43.808 19.616 43.808 43.808v656.832c0 24.224-19.616 43.808-43.744 43.808zM862.272 252.128h-437.824c-11.2 0-22.368-4.32-30.944-12.8l-100.416-100.416v69.408c0 24.224-19.616 43.808-43.808 43.808h-87.552v569.184h700.576v-569.184zM490.496 460.064c0 0 0 16.224 0 18.368 0 30.656 10.464 55.584 43.744 80.096 36.704 26.688 45.056 44.608 45.056 65.248 0 24.064-20.544 47.68-51.648 47.68-38.112 0-60.416-19.68-70.88-65.6l-55.584 12.736c17.472 73.056 55.584 101.952 135.232 101.952 66.048 0 105.024-43.744 105.024-90.112 0-36.288-13.088-62.112-61.216-94.944-32.416-21.856-39.36-38.048-39.36-60.768 0-3.072-0.448-14.496-0.448-14.496h-49.888zM484.352 359.872v62.624h62.176v-62.624h-62.176z" />
<glyph unicode="&#xe948;" glyph-name="cr-mn042" d="M405.216 255.040h235.52c21.728 0 39.264 17.568 39.264 39.264s-17.568 39.264-39.264 39.264h-235.52c-21.728 0-39.264-17.568-39.264-39.264s17.568-39.264 39.264-39.264zM962.048 696.16l-131.52 131.424c-13.376 13.376-35.168 13.376-48.576 0l-219.808-211.008v-180h180.064l219.808 210.944c13.376 13.472 13.376 35.168 0 48.576zM716.736 505.28h-85.856v85.856l1.472 1.472 85.856-85.856-1.472-1.472zM766.752 555.296l-85.856 85.856 119.456 110.656 85.856-85.856-119.456-110.656zM405.216 404.704h78.496c21.728 0 39.264 17.568 39.264 39.264s-17.568 39.264-39.264 39.264h-78.496c-21.728 0-39.264-17.568-39.264-39.264s17.568-39.264 39.264-39.264zM405.216 554.336h78.496c21.728 0 39.264 17.568 39.264 39.264s-17.568 39.264-39.264 39.264h-78.496c-21.728 0-39.264-17.568-39.264-39.264s17.568-39.264 39.264-39.264zM758.432 384.224v-207.712c0-21.728-17.568-39.264-39.264-39.264h-431.776v574.016h274.72l78.496 78.496h-392.48c-21.728 0-39.264-17.568-39.264-39.264v-392.48h-117.76c-21.728 0-39.264-17.568-39.264-39.264v-142.272c0-65.024 52.736-117.76 117.76-117.76h549.536c65.024 0 117.76 52.736 117.76 117.76v260.032l-78.496-52.288zM208.896 176.576c0-21.728-17.568-39.264-39.264-39.264s-39.264 17.568-39.264 39.264v103.072h78.496v-103.072z" />
<glyph unicode="&#xe949;" glyph-name="cr-mn1-22" d="M951.808 754.912l-142.336 142.336c-14.56 14.56-38.048 14.56-52.576 0l-388.96-388.96v-194.848h194.912l388.96 388.96c14.56 14.56 14.56 38.048 0 52.576zM535.264 387.648h-92.96v92.96l1.6 1.6 92.96-92.96-1.6-1.6zM589.376 441.856l-92.896 92.96 280.352 280.352 92.96-92.96-280.352-280.352zM829.792 514.912c9.216-31.584 14.496-64.96 14.496-99.552 0-196.032-159.456-355.488-355.488-355.488s-355.488 159.456-355.488 355.488 159.456 355.488 355.488 355.488c9.568 0 19.008-0.672 28.448-1.472l52.448 65.536c-26.272 5.056-53.248 7.904-80.896 7.904-235.744 0-427.52-191.776-427.52-427.52s191.776-427.52 427.52-427.52c235.744 0 427.52 191.776 427.52 427.52 0 55.136-10.816 107.68-29.92 156.096l-56.544-56.544z" />
<glyph unicode="&#xe94a;" glyph-name="gf-edit2" d="M883.424 632.384l-184.544 184.48c-18.784 18.784-49.312 18.784-68.16 0l-504.256-504.32v-252.64h252.64l504.256 504.256c18.784 18.88 18.784 49.312 0 68.16zM343.328 156.32h-120.48v120.48l2.048 2.048 120.48-120.48-2.048-2.048zM413.536 226.528l-120.48 120.48 363.52 363.52 120.48-120.48-363.52-363.52zM633.856 192.224h263.68v-132.32h-263.68v132.32z" />
<glyph unicode="&#xe94b;" glyph-name="cr-mn1-32" d="M577.888 612.928h-296.512c-18.208 0-32.928-14.688-32.928-32.928s14.688-32.928 32.928-32.928h296.512c18.208 0 32.928 14.688 32.928 32.928s-14.688 32.928-32.928 32.928zM413.184 481.216h-131.808c-18.208 0-32.928-14.688-32.928-32.928s14.688-32.928 32.928-32.928h131.808c18.208 0 32.928 14.688 32.928 32.928s-14.688 32.928-32.928 32.928zM281.376 678.848h65.888c18.208 0 32.928 14.688 32.928 32.928s-14.688 32.928-32.928 32.928h-65.888c-18.208 0-32.928-14.688-32.928-32.928s14.688-32.928 32.928-32.928zM281.376 283.488h65.888c18.208 0 32.928 14.688 32.928 32.928s-14.688 32.928-32.928 32.928h-65.888c-18.208 0-32.928-14.688-32.928-32.928s14.688-32.928 32.928-32.928zM577.888 283.488h98.816c18.208 0 32.928 14.688 32.928 32.928s-14.688 32.928-32.928 32.928h-98.816c-18.208 0-32.928-14.688-32.928-32.928s14.688-32.928 32.928-32.928zM930.592 43.232l-102.336 102.336c28.832 38.464 46.080 86.080 46.080 137.952 0 127.328-103.2 230.624-230.624 230.624s-230.624-103.2-230.624-230.624 103.2-230.624 230.624-230.624c51.776 0 99.488 17.248 137.952 46.080l102.336-102.336c12.864-12.864 33.728-12.864 46.592 0s12.864 33.728 0 46.592zM643.808 118.784c-90.976 0-164.704 73.728-164.704 164.704s73.728 164.704 164.704 164.704c90.976 0 164.704-73.728 164.704-164.704s-73.728-164.704-164.704-164.704zM392.544 184.672h-209.984c-18.208 0-32.928 14.688-32.928 32.928v592.96c0 18.208 14.688 32.928 32.928 32.928h329.44v-131.808c0-18.208 14.688-32.928 32.928-32.928h164.704v-144.16c23.488-7.232 45.504-17.632 65.888-30.432v207.52c0 9.152-3.744 17.408-9.664 23.328l-197.632 164.64c-5.92 5.984-14.176 9.664-23.328 9.664h-395.328c-36.416 0-65.888-29.472-65.888-65.888v-658.88c0-36.416 29.472-65.888 65.888-65.888h273.408c-12.8 20.416-23.2 42.432-30.432 65.888zM577.888 796.96l85.216-52.224h-85.216v52.224z" />
<glyph unicode="&#xe94c;" glyph-name="help_outline2" d="M512 704q70.016 0 120.032-50.016t50.016-120.032q0-54.016-64-111.008t-64-103.008h-84q0 45.984 20 79.008t44 48 44 36.992 20 50.016q0 34.016-25.984 59.008t-60 24.992-60-24.992-25.984-59.008h-84q0 70.016 50.016 120.032t120.032 50.016zM512 105.984q140 0 240.992 100.992t100.992 240.992-100.992 240.992-240.992 100.992-240.992-100.992-100.992-240.992 100.992-240.992 240.992-100.992zM512 873.984q176 0 301.024-125.024t125.024-301.024-125.024-301.024-301.024-125.024-301.024 125.024-125.024 301.024 125.024 301.024 301.024 125.024zM470.016 192v86.016h84v-86.016h-84z" />
<glyph unicode="&#xe94d;" glyph-name="help2" d="M642.016 480q40.032 40.032 40.032 96 0 70.016-50.016 120.032t-120.032 50.016-120.032-50.016-50.016-120.032h84q0 34.016 25.984 60t60 25.984 60-25.984 25.984-60-25.984-60l-52-54.016q-50.016-54.016-50.016-120.032v-22.016h84q0 66.016 50.016 120.032zM553.984 150.016v84h-84v-84h84zM512 873.984q176 0 301.024-125.024t125.024-301.024-125.024-301.024-301.024-125.024-301.024 125.024-125.024 301.024 125.024 301.024 301.024 125.024z" />
<glyph unicode="&#xe94e;" glyph-name="cr-mn3-r" d="M510.198 908.104c-254.561 0-460.923-206.362-460.923-460.923s206.362-460.923 460.923-460.923 460.923 206.362 460.923 460.923-206.362 460.923-460.923 460.923zM799.892 545.592l-375.583-283.791c-21.965-16.742-52.347-14.106-71.404 4.813-7.153 3.907-13.629 9.272-18.621 16.404l-125.394 178.918c-17.326 24.724-11.341 58.752 13.384 76.078 24.719 17.326 58.752 11.341 76.078-13.384l101.299-144.543 334.013 252.38c24.008 18.304 58.25 13.686 76.554-10.322 18.299-24.008 13.681-58.25-10.327-76.554z" />
<glyph unicode="&#xe94f;" glyph-name="circle-check2" d="M512 917.344q95.648 0 182.496-37.152t149.664-100 100-149.664 37.152-182.496-37.152-182.496-100-149.664-149.664-100-182.496-37.152-182.496 37.152-149.664 100-100 149.664-37.152 182.496 37.152 182.496 100 149.664 149.664 100 182.496 37.152zM512 832q-77.984 0-149.152-30.496t-122.496-81.824-81.824-122.496-30.496-149.152 30.496-149.152 81.824-122.496 122.496-81.824 149.152-30.496 149.152 30.496 122.496 81.824 81.824 122.496 30.496 149.152-30.496 149.152-81.824 122.496-122.496 81.824-149.152 30.496zM655.648 576.352q17.664 0 30.176-12.512t12.512-30.176-12.672-30.336l-180.992-180.992q-12.32-12.32-29.984-12.32-18.016 0-30.336 12.32l-90.656 90.336q-12.32 12.32-12.32 30.336 0 17.664 12.512 30.176t30.176 12.512 30.336-12.672l60.32-60.32 150.656 151.008q12.672 12.672 30.336 12.672z" />
<glyph unicode="&#xe950;" glyph-name="chat-32" d="M277.344 576c35.328 0 64-28.64 64-64s-28.672-64-64-64-64 28.64-64 64 28.672 64 64 64zM490.656 576c35.328 0 64-28.64 64-64s-28.672-64-64-64-64 28.64-64 64 28.672 64 64 64zM704 576c35.328 0 64-28.64 64-64s-28.672-64-64-64-64 28.64-64 64 28.672 64 64 64zM853.344 917.344h-725.344c-70.56 0-128-57.44-128-128v-512c0-70.56 85.344-85.344 128-85.344v-256l384 256h341.344c70.56 0 128 57.44 128 128v469.344c0 70.56-57.44 128-128 128zM896 320c0-23.52-19.168-42.656-42.656-42.656h-384l-256-213.344v213.344h-85.344c-23.52 0-42.656 19.168-42.656 42.656v469.344c0 23.52 19.168 42.656 42.656 42.656h725.344c23.52 0 42.656-19.168 42.656-42.656v-469.344z" />
<glyph unicode="&#xe951;" glyph-name="chat-22" d="M277.344 576c35.328 0 64-28.64 64-64s-28.672-64-64-64-64 28.64-64 64 28.672 64 64 64zM490.656 576c35.328 0 64-28.64 64-64s-28.672-64-64-64-64 28.64-64 64 28.672 64 64 64zM853.344 917.344h-725.344c-70.56 0-128-57.44-128-128v-512c0-70.56 85.344-85.344 128-85.344v-256l384 256h341.344c70.56 0 128 57.44 128 128v469.344c0 70.56-57.44 128-128 128zM896 320c0-23.52-19.168-42.656-42.656-42.656h-384l-256-213.344v213.344h-85.344c-23.52 0-42.656 19.168-42.656 42.656v469.344c0 23.52 19.168 42.656 42.656 42.656h725.344c23.52 0 42.656-19.168 42.656-42.656v-469.344z" />
<glyph unicode="&#xe952;" glyph-name="chat-12" d="M277.344 576c35.328 0 64-28.64 64-64s-28.672-64-64-64-64 28.64-64 64 28.672 64 64 64zM853.344 917.344h-725.344c-70.56 0-128-57.44-128-128v-512c0-70.56 85.344-85.344 128-85.344v-256l384 256h341.344c70.56 0 128 57.44 128 128v469.344c0 70.56-57.44 128-128 128zM896 320c0-23.52-19.168-42.656-42.656-42.656h-384l-256-213.344v213.344h-85.344c-23.52 0-42.656 19.168-42.656 42.656v469.344c0 23.52 19.168 42.656 42.656 42.656h725.344c23.52 0 42.656-19.168 42.656-42.656v-469.344z" />
<glyph unicode="&#xe953;" glyph-name="gf-good2" d="M226.464 563.264h-115.264v-576.288h115.264c31.904 0 57.632 25.824 57.632 57.632v461.088c0 31.904-25.76 57.632-57.632 57.632zM226.464 73.376c0-15.872-12.864-28.832-28.832-28.832h-28.832v461.024h28.832c15.936 0 28.832-12.864 28.832-28.832v-403.456zM916.48 499.264c8.352 42.336-19.616 64-56.032 64h-230.56v288.192c0 31.904-25.76 57.632-57.632 57.632h-86.464c-31.904 0-47.040-24.288-57.632-57.632l-78.624-288.192h-7.84c-63.648 0-115.264-51.552-115.264-115.264v-345.824c0-63.648 51.648-115.264 115.264-115.264v0h396.224c36 0 54.944 20.256 64.8 57.632l113.664 454.72zM710.944 44.544h-369.216c-31.808 0-57.632 25.824-57.632 57.632v345.824c0 31.904 25.824 57.632 57.632 57.632h24.8c18.432 0 28.608 13.76 32.832 28.832l86.464 288.192c4.544 15.52 14.4 28.832 34.656 28.832h22.976c15.936 0 28.832-12.864 28.832-28.832v-288.192c0-15.872 12.864-28.832 28.832-28.832h230.56c21.152 0 26.112-13.024 21.568-28.832l-15.424-57.632h-34.976c-15.936 0-28.832-12.864-28.832-28.832s12.864-28.832 28.832-28.832h19.52l-15.424-57.632h-32.928c-15.936 0-28.832-12.864-28.832-28.832s12.864-28.832 28.832-28.832h17.472l-15.424-57.632h-30.88c-15.936 0-28.832-12.864-28.832-28.832s12.864-28.832 28.832-28.832h15.424l-15.424-57.632c-5.344-16.672-18.272-28.832-34.24-28.832z" />
<glyph unicode="&#xe954;" glyph-name="gf-bad2" d="M226.752 333.6h-115.136v575.648h115.136c31.808 0 57.568-25.76 57.568-57.568v-460.512c0-31.808-25.76-57.568-57.568-57.568zM226.752 822.944c0 15.872-12.864 28.832-28.832 28.832h-28.736v-460.512h28.832c15.936 0 28.832 12.864 28.832 28.832v402.944zM916.032 397.536c8.352-42.272-19.52-63.84-56.032-63.84h-230.24v-287.808c0-31.808-25.76-57.568-57.568-57.568h-86.368c-31.808 0-46.944 24.288-57.568 57.568l-78.496 287.808h-7.84c-63.552 0-115.136 51.488-115.136 115.136v345.376c0 63.552 51.552 115.136 115.136 115.136v0h395.776c36 0 54.848-20.256 64.736-57.568l113.6-454.208zM710.72 851.744h-368.8c-31.808 0-57.568-25.76-57.568-57.568v-345.376c0-31.808 25.76-57.568 57.568-57.568h24.736c18.432 0 28.512-13.76 32.832-28.832l86.368-287.808c4.544-15.52 14.4-28.832 34.592-28.832h22.976c15.936 0 28.832 12.864 28.832 28.832v287.808c0 15.872 12.864 28.832 28.832 28.832h230.24c21.152 0 26.112 13.024 21.568 28.832l-15.424 57.568h-34.976c-15.872 0-28.832 12.864-28.832 28.832s12.864 28.832 28.832 28.832h19.52l-15.424 57.568h-32.928c-15.872 0-28.832 12.864-28.832 28.832s12.864 28.832 28.832 28.832h17.472l-15.424 57.568h-30.88c-15.872 0-28.832 12.864-28.832 28.832s12.864 28.832 28.832 28.832h15.424l-15.424 57.568c-5.344 16.608-18.272 28.736-34.144 28.736z" />
<glyph unicode="&#xe955;" glyph-name="thumbs-down222" d="M325.216 312.928c6.816-18.24-181.184-186.048-71.52-322.112 25.664-31.808 112.704 152.32 236.288 235.616 68.16 46.016 226.816 143.936 226.816 198.048v350.304c0 65.088-251.584 133.984-442.784 133.984-70.080 0-171.616-439.104-171.616-508.864 0-69.984 216.128-68.768 222.816-86.976zM768 317.792c33.696 0 153.6 20.48 153.6 159.904v248.224c0 139.328-119.904 154.688-153.6 154.688-33.632 0 51.2-29.28 51.2-115.712v-326.304c0-90.528-84.832-120.768-51.2-120.768z" />
<glyph unicode="&#xe956;" glyph-name="thumbs-up22" d="M698.784 583.072c-6.816 18.176 181.184 186.048 71.584 322.112-25.664 31.808-112.704-152.32-236.288-235.68-68.192-45.984-226.88-143.872-226.88-197.984v-350.304c0-65.088 251.584-133.984 442.784-133.984 70.080 0 171.616 439.104 171.616 508.832 0 70.048-216.128 68.8-222.816 87.040zM256 578.208c-33.696 0-153.6-20.48-153.6-159.904v-248.224c0-139.328 119.904-154.688 153.6-154.688 33.632 0-51.2 29.28-51.2 115.712v326.304c0 90.528 84.832 120.768 51.2 120.768z" />
<glyph unicode="&#xe957;" glyph-name="gf-intercept2" d="M444.064 368.064l26.176 44.832 1.024 1.536 28.896 49.824h-264.416c-26.688-19.456-62.016-26.4-94.944-17.696-59.84 16.16-95.68 78.272-79.52 138.016 16.16 59.552 77.76 95.456 137.504 79.52 56.544-14.912 92.96-72.256 81.984-129.536h259.136l51.36 88.224 58.816 102.176 60.256 104.448c9.44 16.672 30.88 22.688 47.84 12.736s22.176-31.168 12.96-47.84l-60.256-103.648-59.328-102.624-1.024-1.984-29.408-51.36h300.032c19.168 0 34.88-15.712 34.88-34.88 0-19.968-15.712-35.392-34.88-35.392h-340.928l-38.4-66.272c8.704-2.496 17.184-5.696 25.44-10.464h0.512c23.392-13.472 39.872-35.84 46.368-60.576 6.432-24.416 3.424-51.552-9.952-75.488l-0.512-0.512-104.672-181.184c-13.664-23.904-35.84-39.872-60.576-46.304-23.904-6.496-50.112-4.256-73.28 8.704-1.248 0.512-2.784 1.248-4.032 2.272-22.688 13.664-38.112 35.392-44.608 59.328-6.496 24.64-3.744 51.552 9.952 75.488l104.896 181.696 0.512 1.248c3.744 5.696 7.456 11.2 12 15.936v0zM71.968 778.688v0h66.56c11.488 0 21.216 9.728 21.216 21.216 0 11.712-9.728 21.216-21.216 21.216h-66.56c-11.712 0-21.216-9.44-21.216-21.216 0-11.488 9.504-21.216 21.216-21.216v0zM207.584 778.688v0h66.272c11.488 0 20.928 9.728 20.928 21.216 0 11.712-9.44 21.216-20.928 21.216h-66.272c-12 0-21.44-9.44-21.44-21.216 0-11.488 9.44-21.216 21.44-21.216v0zM342.592 778.688v0h66.272c11.712 0 21.44 9.728 21.44 21.216 0 11.712-9.728 21.216-21.44 21.216h-66.272c-11.712 0-20.928-9.44-20.928-21.216 0-11.488 9.216-21.216 20.928-21.216v0zM478.144 778.688v0h66.272c11.488 0 20.704 9.728 20.704 21.216 0 11.712-9.216 21.216-20.704 21.216h-66.272c-11.488 0-21.216-9.44-21.216-21.216 0-11.488 9.728-21.216 21.216-21.216v0zM883.872 778.688v0h66.272c11.936 0 21.216 9.728 21.216 21.216 0 11.712-9.216 21.216-21.216 21.216h-66.272c-11.488 0-21.216-9.44-21.216-21.216 0-11.488 9.728-21.216 21.216-21.216v0zM188.128 623.168v0c-37.6 10.24-76.224-11.936-86.24-49.6-10.24-37.376 12.224-76.512 49.6-85.952 38.112-10.464 76.224 12 86.464 49.376 9.952 37.376-11.936 76.512-49.824 86.176v0zM467.968 329.664v0l-104.896-181.408c-7.968-13.472-9.44-29.408-5.472-43.36 3.744-14.912 12.96-27.424 26.4-35.392 13.664-7.968 29.632-9.44 43.872-5.472 14.4 3.52 27.136 12.96 34.88 26.4l104.16 179.872c0.512 1.536 1.024 2.496 1.76 3.52 7.008 13.248 8.48 28.384 4.768 42.144s-12.448 26.176-25.376 34.368l-0.736 0.224-0.512 0.288-0.512 0.512-0.512 0.288-1.024 0.448c-13.248 7.008-28.16 8.48-41.824 4.448-13.664-3.424-26.176-12.448-34.368-25.888l-0.512-1.024z" />
<glyph unicode="&#xe958;" glyph-name="gf-switch2" d="M652 525.472h-53.92c-2.848 7.968-6.080 15.712-9.664 23.264l38.112 38.112c15.584 15.648 15.584 40.96 0 56.544l-56.544 56.544c-15.584 15.584-40.896 15.584-56.544 0l-38.112-38.112c-7.52 3.584-15.296 6.816-23.264 9.664v53.92c0 22.080-17.92 40-40 40h-79.936c-22.080 0-39.936-17.92-39.936-40v-53.92c-7.968-2.848-15.712-6.080-23.264-9.664l-38.112 38.112c-15.648 15.584-40.96 15.584-56.544 0l-56.544-56.544c-15.584-15.584-15.584-40.896 0-56.544l38.112-38.112c-3.584-7.52-6.816-15.296-9.664-23.264h-53.92c-22.080 0-40-17.92-40-40v-79.936c0-22.080 17.92-40 40-40h53.92c2.848-7.968 6.080-15.712 9.664-23.264l-38.176-38.176c-15.648-15.584-15.648-40.96 0-56.544l56.544-56.544c15.584-15.584 40.96-15.584 56.544 0l38.176 38.176c7.52-3.584 15.296-6.816 23.264-9.664v-53.92c0-22.080 17.92-40 40-40h79.936c22.080 0 40 17.92 40 40v53.984c7.968 2.848 15.712 6.080 23.264 9.664l38.112-38.176c15.584-15.584 40.96-15.584 56.544 0l56.544 56.544c15.584 15.584 15.584 40.96 0 56.544l-38.176 38.176c3.584 7.52 6.816 15.296 9.664 23.264h53.92c22.080 0 40 17.92 40 40v79.936c0 22.080-17.92 40-40 40zM372.16 275.52c-93.856 0-169.92 76.064-169.92 169.92s76.064 169.92 169.92 169.92c93.856 0 169.92-76.064 169.92-169.92s-76.064-169.92-169.92-169.92zM956.352 698.592h-27.712c-0.064 0.16-0.16 0.288-0.224 0.448l13.248 23.040c4.256 7.328 1.696 16.608-5.568 20.832l-52.8 30.496c-7.328 4.256-16.608 1.696-20.832-5.568l-13.088-22.688c-0.224 0-0.448 0.064-0.672 0.064s-0.448-0.064-0.672-0.064l-13.088 22.688c-4.256 7.328-13.536 9.792-20.832 5.568l-52.8-30.496c-7.328-4.256-9.792-13.536-5.568-20.832l13.312-23.040c-0.064-0.16-0.16-0.288-0.224-0.448h-27.712c-8.48 0-15.36-6.88-15.36-15.36v-61.504c0-8.48 6.88-15.36 15.36-15.36h27.712c0.064-0.16 0.16-0.288 0.224-0.448l-13.312-23.040c-4.256-7.328-1.76-16.608 5.568-20.832l52.8-30.496c7.328-4.256 16.608-1.696 20.832 5.568l13.088 22.688c0.224 0 0.448-0.064 0.672-0.064s0.448 0.064 0.672 0.064l13.088-22.688c4.256-7.328 13.536-9.792 20.832-5.568l52.8 30.496c7.328 4.16 9.792 13.536 5.568 20.832l-13.248 23.040c0.064 0.16 0.16 0.288 0.224 0.448h27.712c8.48 0 15.36 6.88 15.36 15.36v61.504c0 8.48-6.88 15.36-15.36 15.36zM848.608 575.712c-42.432 0-76.8 34.368-76.8 76.8s34.368 76.8 76.8 76.8 76.8-34.368 76.8-76.8c0-42.432-34.368-76.8-76.8-76.8zM956.352 284.512h-27.712c-0.064 0.16-0.16 0.288-0.224 0.448l13.248 23.040c4.256 7.328 1.696 16.608-5.568 20.832l-52.8 30.496c-7.328 4.256-16.608 1.696-20.832-5.568l-13.088-22.688c-0.224 0-0.448 0.064-0.672 0.064s-0.448-0.064-0.672-0.064l-13.088 22.688c-4.256 7.328-13.536 9.792-20.832 5.568l-52.8-30.496c-7.328-4.256-9.792-13.536-5.568-20.832l13.312-23.040c-0.064-0.16-0.16-0.288-0.224-0.448h-27.712c-8.48 0-15.36-6.88-15.36-15.36v-61.504c0-8.48 6.88-15.36 15.36-15.36h27.712c0.064-0.16 0.16-0.288 0.224-0.448l-13.312-23.040c-4.256-7.328-1.76-16.608 5.568-20.832l52.8-30.496c7.328-4.256 16.608-1.696 20.832 5.568l13.088 22.688c0.224 0 0.448-0.064 0.672-0.064s0.448 0.064 0.672 0.064l13.088-22.688c4.256-7.328 13.536-9.792 20.832-5.568l52.8 30.496c7.328 4.256 9.792 13.536 5.568 20.832l-13.248 23.040c0.064 0.16 0.16 0.288 0.224 0.448h27.712c8.48 0 15.36 6.88 15.36 15.36v61.504c0 8.48-6.88 15.424-15.36 15.424zM848.608 161.632c-42.432 0-76.8 34.368-76.8 76.8s34.368 76.8 76.8 76.8 76.8-34.368 76.8-76.8c0-42.432-34.368-76.8-76.8-76.8z" />
<glyph unicode="&#xe959;" glyph-name="gfsj-bd" d="M217.964 423.475c99.901 21.463 86.303 140.846 83.302 166.948-4.9 40.238-52.214 110.531-116.465 104.991-80.85-7.245-92.652-124.037-92.652-124.037-10.936-54.006 26.158-169.344 125.814-147.901zM324.045 215.844c-2.934-8.402-9.457-29.865-3.794-48.553 11.146-41.943 47.549-43.822 47.549-43.822h52.316v127.867h-56.008c-25.19-7.506-37.34-27.090-40.064-35.492zM403.374 623.688c55.178 0 99.763 63.493 99.763 141.998 0 78.433-44.585 141.911-99.763 141.911-55.076 0-99.794-63.478-99.794-141.911 0-78.505 44.723-141.998 99.794-141.998zM640.993 614.303c73.743-9.574 121.155 69.12 130.575 128.768 9.631 59.556-37.96 128.763-90.168 140.652-52.316 11.991-117.637-71.793-123.571-126.433-7.107-66.79 9.559-133.514 83.164-142.986zM821.673 263.675c0 0-114.079 88.269-180.68 183.68-90.271 140.672-218.532 83.42-261.427 11.889-42.721-71.532-109.286-116.772-118.743-128.763-9.59-11.802-137.82-81.009-109.353-207.457 28.472-126.351 128.44-123.935 128.44-123.935s73.672-7.245 159.15 11.889c85.509 18.959 159.114-4.746 159.114-4.746s199.731-66.877 254.387 61.891c54.589 128.763-30.889 195.553-30.889 195.553zM479.949 72.054h-129.853c-56.074 11.182-78.397 49.449-81.229 55.972-2.76 6.625-18.668 37.386-10.25 89.702 24.228 78.418 93.343 84.045 93.343 84.045h69.12v84.956l58.87-0.896v-313.779zM721.777 72.95h-149.422c-57.902 14.925-60.626 56.059-60.626 56.059v165.258l60.626 0.983v-148.521c3.692-15.841 23.363-18.703 23.363-18.703h61.563v166.241h64.497v-221.317zM933.309 514.145c0 28.539-23.706 114.463-111.631 114.463-88.064 0-99.83-81.091-99.83-138.429 0-54.712 4.623-131.092 114.012-128.66 109.425 2.417 97.449 123.935 97.449 152.627z" />
<glyph unicode="&#xe95a;" glyph-name="alarm5" d="M512 105.984q124 0 210.976 88.032t87.008 212-87.008 210.976-210.976 87.008-210.976-87.008-87.008-210.976 87.008-212 210.976-88.032zM512 790.016q160 0 272-112.992t112-271.008-112-271.008-272-112.992-272 112.992-112 271.008 112 271.008 272 112.992zM534.016 617.984v-224l169.984-100-32-52-201.984 120.032v256h64zM336 816l-196-164-54.016 64 196 164zM937.984 716l-54.016-66.016-196 166.016 54.016 64z" />
<glyph unicode="&#xe95b;" glyph-name="alarm22" d="M896.064 447.904c0 212.096-171.904 384.064-384.064 384.064-212.096 0-384.064-171.968-384.064-384.064 0-133.376 68-250.848 171.232-319.712l-106.976-106.912 85.152-85.28 139.68 139.68c30.368-7.744 62.208-11.84 94.976-11.84s64.608 4.128 94.976 11.84l139.68-139.68 85.152 85.28-106.944 106.912c103.232 68.864 171.232 186.336 171.232 319.712zM512 191.872c-141.408 0-256.032 114.656-256.032 256.032s114.656 256.032 256.032 256.032 256.032-114.656 256.032-256.032c0-141.408-114.656-256.032-256.032-256.032zM896.064 960c-70.688 0-128.032-57.312-128.032-128.032 0-5.824 0.416-11.552 1.184-17.152 42.624-29.92 79.776-67.072 109.696-109.696 5.6-0.768 11.328-1.184 17.152-1.184 70.688 0 128.032 57.312 128.032 128.032s-57.312 128.032-128.032 128.032zM145.088 705.12c29.92 42.624 67.072 79.776 109.696 109.696 0.768 5.6 1.184 11.328 1.184 17.152 0 70.688-57.312 128.032-128.032 128.032s-128.032-57.312-128.032-128.032c0-70.688 57.312-128.032 128.032-128.032 5.824 0 11.52 0.416 17.152 1.184zM576 511.904v128.032h-128.032v-256.064h192.032v128.032z" />
<glyph unicode="&#xe95c;" glyph-name="apps2" d="M681.984 105.984v172h172v-172h-172zM681.984 361.984v172h172v-172h-172zM425.984 617.984v172h172v-172h-172zM681.984 790.016h172v-172h-172v172zM425.984 361.984v172h172v-172h-172zM169.984 361.984v172h172v-172h-172zM169.984 105.984v172h172v-172h-172zM425.984 105.984v172h172v-172h-172zM169.984 617.984v172h172v-172h-172z" />
<glyph unicode="&#xe95d;" glyph-name="arrow_back" d="M854.016 489.984v-84h-520.032l237.984-240-60-60-342.016 342.016 342.016 342.016 60-60-237.984-240h520.032z" />
<glyph unicode="&#xe95e;" glyph-name="arrow_forward2" d="M512 790.016l342.016-342.016-342.016-342.016-60 60 237.984 240h-520.032v84h520.032l-237.984 240z" />
<glyph unicode="&#xe95f;" glyph-name="assignment_turned_in2" d="M425.984 233.984l342.016 342.016-60 60-281.984-280.032-109.984 109.984-60-60zM512 832q-18.016 0-29.984-12t-12-29.984 12-31.008 29.984-13.024 29.984 13.024 12 31.008-12 29.984-29.984 12zM809.984 832q34.016 0 60-25.984t25.984-60v-596q0-34.016-25.984-60t-60-25.984h-596q-34.016 0-60 25.984t-25.984 60v596q0 34.016 25.984 60t60 25.984h178.016q13.984 38.016 45.984 61.984t73.984 24.032 73.984-24.032 45.984-61.984h178.016z" />
<glyph unicode="&#xe960;" glyph-name="cancel52" d="M726.016 294.016l-153.984 153.984 153.984 153.984-60 60-153.984-153.984-153.984 153.984-60-60 153.984-153.984-153.984-153.984 60-60 153.984 153.984 153.984-153.984zM512 873.984q176 0 301.024-125.024t125.024-301.024-125.024-301.024-301.024-125.024-301.024 125.024-125.024 301.024 125.024 301.024 301.024 125.024z" />
<glyph unicode="&#xe961;" glyph-name="circle-with-plus2" d="M512 878.080c-237.504 0-430.080-192.576-430.080-430.080s192.576-430.080 430.080-430.080 430.080 192.576 430.080 430.080c0 237.504-192.576 430.080-430.080 430.080zM768 396.8h-204.8v-204.8h-102.4v204.8h-204.8v102.4h204.8v204.8h102.4v-204.8h204.8v-102.4z" />
<glyph unicode="&#xe962;" glyph-name="circle-with-minus2" d="M512 878.080c-237.504 0-430.080-192.576-430.080-430.080s192.576-430.080 430.080-430.080 430.080 192.576 430.080 430.080c0 237.504-192.576 430.080-430.080 430.080zM768 396.8h-512v102.4h512v-102.4z" />
<glyph unicode="&#xe963;" glyph-name="gf-wrong1" d="M676.014 612.055c-11.3 11.187-29.568 11.187-40.873 0l-123.269-123.331-121.492 121.61c-11.213 11.187-29.399 11.187-40.556 0-11.213-11.187-11.213-29.542 0-40.73l121.492-121.318-122.353-122.47c-11.274-11.187-11.274-29.542 0-41.011 11.3-11.187 29.599-11.187 40.899 0l122.353 122.47 121.492-121.605c11.213-11.187 29.399-11.187 40.586 0 11.213 11.187 11.213 29.542 0 40.73l-121.523 121.318 123.244 123.331c11.269 11.464 11.269 29.532 0 41.006zM512.046 906.895c-253.455 0-458.895-205.358-458.895-458.895s205.44-458.895 458.895-458.895 458.895 205.358 458.895 458.895-205.445 458.895-458.895 458.895zM512.046 46.464c-221.763 0-401.536 179.83-401.536 401.536s179.773 401.536 401.536 401.536 401.531-179.83 401.531-401.536-179.773-401.536-401.531-401.536z" />
<glyph unicode="&#xe964;" glyph-name="gf-wrong2" d="M511.022 908.728c-253.926 0-459.75-205.737-459.75-459.75s205.824-459.75 459.75-459.75 459.75 205.737 459.75 459.75-205.824 459.75-459.75 459.75zM673.572 327.142c11.233-11.208 11.233-29.599 0-40.801-11.208-11.208-29.425-11.208-40.658 0l-121.718 121.836-122.583-122.696c-11.32-11.208-29.655-11.208-40.975 0-11.295 11.494-11.295 29.885 0 41.088l122.583 122.696-121.718 121.549c-11.233 11.208-11.233 29.599 0 40.801 11.177 11.208 29.394 11.208 40.632 0l121.713-121.836 123.5 123.556c11.32 11.208 29.624 11.208 40.945 0 11.29-11.494 11.29-29.599 0-41.088l-123.474-123.556 121.754-121.549z" />
<glyph unicode="&#xe965;" glyph-name="attachment2" d="M576-57.568v-6.432h-128v6.432c-216.864 31.328-384 216.064-384 441.568v256c0 176.736 143.264 320 320 320 154.816 0 290.304-109.952 320-256v0-320c0-106.048-86.016-192-192-192s-192 85.952-192 192v256c0 35.36 28.64 64 64 64s64-28.64 64-64v-256c0-35.36 28.64-64 64-64s64 28.64 64 64v320c0 0-41.312 128-192 128-106.016 0-192-85.952-192-192v-256c0-176.736 143.264-320 320-320v0c176.736 0 320 143.264 320 320v512c0 35.36 28.64 64 64 64s64-28.608 64-64v-512c0-225.504-167.136-410.24-384-441.568z" />
<glyph unicode="&#xe966;" glyph-name="paper-clip" d="M674.016 960q41.696 0 80-15.648 40.032-16 70.656-46.688 31.008-31.328 46.688-70.304 15.328-37.664 15.328-80t-15.328-80q-15.648-39.008-46.688-70.304l-392.672-392.672q-18.016-18.016-42.656-28.32-24.032-9.344-48-9.344t-48 9.344q-24.672 10.336-42.656 28.32-18.688 18.688-28 42.336-9.344 22.656-9.344 48 0 25.696 9.344 48.352 9.344 23.328 28 42.336l362.336 361.984q12.672 12.672 30.336 12.672 17.312 0 29.984-12.672t12.672-29.984q0-17.664-12.672-30.336l-362.336-361.984q-12.32-12.32-12.32-30.336 0-17.664 12.32-29.984 13.312-12.672 30.336-12.672t30.336 12.672l392.672 392.672q36.992 36.992 36.992 89.984t-36.992 89.984q-38.016 37.344-90.336 37.344-52.64 0-89.984-37.344l-393.696-391.68q-30.688-30.688-46.688-70.656-15.648-38.304-15.648-80.352 0-41.344 15.648-80.352 16-39.68 46.688-70.304 31.648-31.328 70.656-47.008t80.352-15.648 80.352 15.648 70.656 47.008l391.968 392.032q12.672 12.672 30.336 12.672 17.312 0 29.984-12.672t12.672-29.984q0-17.664-12.672-30.336l-392.032-392.032q-43.008-43.008-98.976-65.664-53.344-22.016-112.352-22.016-58.656 0-112.352 22.016-56.032 22.656-98.976 65.664-42.656 42.656-65.312 98.688-22.016 54.016-22.016 112.352 0 58.656 22.016 112.352 22.304 55.328 65.312 98.976h0.352l393.344 391.68q30.688 30.688 70.304 46.688 39.008 15.648 80 15.648z" />
<glyph unicode="&#xe967;" glyph-name="book22" d="M512 768l-384 192h-64c-35.36 0-64-28.64-64-64v-704c0-35.36 28.608-64 64-64l448-192 448 192c35.36 0 64 28.64 64 64v704c0 35.36-28.64 64-64 64h-64zM448 96l-320 160v512l320-106.656v-565.344zM896 256l-320-160v565.344l320 106.656v-512z" />
<glyph unicode="&#xe968;" glyph-name="book102" d="M213.344 917.344h682.656v-938.656h-682.656q-52.992 0-90.496 37.504t-37.504 90.496v682.656q0 52.992 37.504 90.496t90.496 37.504zM810.656 64v85.344h-597.344q-17.664 0-30.176-12.512t-12.512-30.176 12.512-30.176 30.176-12.512h597.344zM810.656 234.656v597.344h-597.344q-17.664 0-30.176-12.512t-12.512-30.176v-562.016q20.992 7.328 42.656 7.328h597.344z" />
<glyph unicode="&#xe969;" glyph-name="chat82" d="M853.344 917.344h-725.344c-70.56 0-128-57.44-128-128v-512c0-70.56 85.344-85.344 128-85.344v-256l384 256h341.344c70.56 0 128 57.44 128 128v469.344c0 70.56-57.44 128-128 128zM896 320c0-23.52-19.168-42.656-42.656-42.656h-384l-256-213.344v213.344h-85.344c-23.52 0-42.656 19.168-42.656 42.656v469.344c0 23.52 19.168 42.656 42.656 42.656h725.344c23.52 0 42.656-19.168 42.656-42.656v-469.344z" />
<glyph unicode="&#xe96a;" glyph-name="chat722" d="M768 617.984v86.016h-512v-86.016h512zM598.016 361.984v86.016h-342.016v-86.016h342.016zM256 576v-86.016h512v86.016h-512zM854.016 873.984q34.016 0 59.008-24.992t24.992-59.008v-512q0-34.016-24.992-60t-59.008-25.984h-598.016l-169.984-169.984v768q0 34.016 24.992 59.008t59.008 24.992h684z" />
<glyph unicode="&#xe96b;" glyph-name="circle-cross2" d="M512 917.344q95.648 0 182.496-37.152t149.664-100 100-149.664 37.152-182.496-37.152-182.496-100-149.664-149.664-100-182.496-37.152-182.496 37.152-149.664 100-100 149.664-37.152 182.496 37.152 182.496 100 149.664 149.664 100 182.496 37.152zM512 832q-77.984 0-149.152-30.496t-122.496-81.824-81.824-122.496-30.496-149.152 30.496-149.152 81.824-122.496 122.496-81.824 149.152-30.496 149.152 30.496 122.496 81.824 81.824 122.496 30.496 149.152-30.496 149.152-81.824 122.496-122.496 81.824-149.152 30.496zM632.672 611.68q17.664 0 30.336-12.512t12.672-30.176-12.672-30.336l-90.656-90.656 90.656-90.336q12.672-12.672 12.672-29.984 0-17.664-12.672-30.176t-30.336-12.512-29.984 12.32l-90.656 90.336-90.336-90.336q-12.32-12.32-30.336-12.32-17.664 0-30.176 12.32t-12.512 29.984q0 18.016 12.32 30.336l90.656 90.336-90.656 90.656q-12.32 12.32-12.32 29.984t12.512 30.336 30.176 12.672 30.336-12.672l90.336-90.656 90.656 90.656q12.672 12.672 29.984 12.672z" />
<glyph unicode="&#xe96c;" glyph-name="gf-right12" d="M512.512 908.736c-254.688 0-461.248-206.4-461.248-461.248s206.496-461.248 461.248-461.248 461.248 206.4 461.248 461.248-206.56 461.248-461.248 461.248zM512.512 43.968c-222.88 0-403.616 180.736-403.616 403.616s180.672 403.616 403.616 403.616 403.616-180.736 403.616-403.616-180.672-403.616-403.616-403.616zM686.24 647.232c-13.824 8.032-31.456 3.136-39.36-10.4l-184.32-319.424-103.136 95.168c-10.912 11.552-29.12 12.128-40.736 1.184-11.616-10.688-12.224-29.12-1.312-40.672l131.808-121.632c10.912-11.552 29.12-12.128 40.736-1.184 3.52 3.136 207.008 357.728 207.008 357.728 7.968 13.536 3.232 31.456-10.528 39.2z" />
<glyph unicode="&#xe96d;" glyph-name="gf-wrong12" d="M676 612.064c-11.264 11.2-29.536 11.2-40.896 0l-123.232-123.328-121.504 121.632c-11.2 11.2-29.408 11.2-40.512 0s-11.2-29.536 0-40.736l121.504-121.344-122.368-122.432c-11.264-11.2-11.264-29.536 0-41.024 11.264-11.2 29.632-11.2 40.896 0l122.368 122.432 121.504-121.632c11.2-11.2 29.408-11.2 40.608 0s11.2 29.536 0 40.736l-121.504 121.344 123.232 123.328c11.264 11.488 11.264 29.536 0 41.024zM512.064 906.912c-253.44 0-458.912-205.376-458.912-458.912s205.472-458.912 458.912-458.912 458.912 205.376 458.912 458.912-205.472 458.912-458.912 458.912zM512.064 46.432c-221.76 0-401.568 179.872-401.568 401.568s179.776 401.568 401.568 401.568 401.568-179.872 401.568-401.568-179.776-401.568-401.568-401.568z" />
<glyph unicode="&#xe96e;" glyph-name="circle-minus2" d="M512 917.344q95.648 0 182.496-37.152t149.664-100 100-149.664 37.152-182.496-37.152-182.496-100-149.664-149.664-100-182.496-37.152-182.496 37.152-149.664 100-100 149.664-37.152 182.496 37.152 182.496 100 149.664 149.664 100 182.496 37.152zM512 832q-77.984 0-149.152-30.496t-122.496-81.824-81.824-122.496-30.496-149.152 30.496-149.152 81.824-122.496 122.496-81.824 149.152-30.496 149.152 30.496 122.496 81.824 81.824 122.496 30.496 149.152-30.496 149.152-81.824 122.496-122.496 81.824-149.152 30.496zM341.344 490.656h341.344q17.664 0 30.176-12.512t12.512-30.176-12.512-30.176-30.176-12.512h-341.344q-17.664 0-30.176 12.512t-12.512 30.176 12.512 30.176 30.176 12.512z" />
<glyph unicode="&#xe96f;" glyph-name="circle-plus2" d="M512 917.344q95.648 0 182.496-37.152t149.664-100 100-149.664 37.152-182.496-37.152-182.496-100-149.664-149.664-100-182.496-37.152-182.496 37.152-149.664 100-100 149.664-37.152 182.496 37.152 182.496 100 149.664 149.664 100 182.496 37.152zM512 832q-77.984 0-149.152-30.496t-122.496-81.824-81.824-122.496-30.496-149.152 30.496-149.152 81.824-122.496 122.496-81.824 149.152-30.496 149.152 30.496 122.496 81.824 81.824 122.496 30.496 149.152-30.496 149.152-81.824 122.496-122.496 81.824-149.152 30.496zM512 661.344q17.664 0 30.176-12.512t12.512-30.176v-128h128q17.664 0 30.176-12.512t12.512-30.176-12.512-30.176-30.176-12.512h-128v-128q0-17.664-12.512-30.176t-30.176-12.512-30.176 12.512-12.512 30.176v128h-128q-17.664 0-30.176 12.512t-12.512 30.176 12.512 30.176 30.176 12.512h128v128q0 17.664 12.512 30.176t30.176 12.512z" />
<glyph unicode="&#xe970;" glyph-name="icon-012" d="M42.656 746.656l469.344 213.344 469.344-213.344v-597.344l-469.344-213.344-469.344 213.344v597.344zM469.344 505.984l-341.344 155.008v-456.672l341.344-155.36v456.992zM896 204.32v456.672l-341.344-155.008v-456.992zM826.656 723.328l-314.656 143.008-314.656-143.008 314.656-143.008z" />
<glyph unicode="&#xe971;" glyph-name="settings2" d="M1024 512v-128h-133.824c-9.568-56.672-32.096-108.736-63.648-154.048l134.208-116.672-92.384-114.112-147.968 128.672c-43.104-28-91.616-48.448-144.416-57.376v-134.432h-128v133.824c-52.928 8.928-101.536 29.568-144.672 57.824l-147.712-128.512-92.384 114.112 134.432 116.928c-31.328 45.248-53.696 97.184-63.264 153.824h-134.432v128h133.824c9.568 56.672 32.096 108.736 63.648 154.048l-134.208 116.672 92.384 114.112 147.968-128.672c43.104 28 91.616 48.448 144.416 57.376v134.432h128v-134.432c52.768-8.928 101.312-29.376 144.416-57.376l147.968 128.672 92.384-114.112-134.208-116.672c31.552-45.312 54.080-97.376 63.648-154.048h133.824zM512 640c-106.016 0-192-85.952-192-192s85.984-192 192-192 192 85.952 192 192-85.952 192-192 192z" />
<glyph unicode="&#xe972;" glyph-name="setting" d="M512 960q52.992 0 90.496-37.504t37.504-90.496v-22.016q15.648-5.344 37.664-15.328l15.328 15.328q37.664 37.664 90.656 37.664 52.64 0 90.336-37.664t37.664-90.336q0-52.992-37.664-90.656l-15.328-15.328q9.984-22.016 15.328-37.664h22.016q52.992 0 90.496-37.504t37.504-90.496-37.504-90.496-90.496-37.504h-22.016q-5.344-15.648-15.328-37.664l15.328-15.328q37.664-37.664 37.664-90.656 0-52.64-37.664-90.336t-90.336-37.664q-52.992 0-90.656 37.664l-15.328 15.328q-22.016-9.984-37.664-15.328v-22.016q0-52.992-37.504-90.496t-90.496-37.504-90.496 37.504-37.504 90.496v22.016q-15.648 5.344-37.664 15.328l-15.328-15.328q-37.664-37.664-90.336-37.664-52.992 0-90.496 37.664t-37.504 90.336q0 53.344 37.344 90.656l15.328 15.328q-9.984 22.016-15.328 37.664h-22.016q-52.992 0-90.496 37.504t-37.504 90.496 37.504 90.496 90.496 37.504h22.016q5.344 15.648 15.328 37.664l-15.328 15.328q-37.344 37.344-37.344 90.656 0 52.64 37.504 90.336t90.496 37.664q52.64 0 90.336-37.664l15.328-15.328q22.016 9.984 37.664 15.328v22.016q0 52.992 37.504 90.496t90.496 37.504zM512 874.656q-17.664 0-30.176-12.512t-12.512-30.176v-88.32q-74.656-10.656-136.32-56.32l-62.336 62.336q-12.672 12.672-29.984 12.672-17.664 0-30.176-12.512t-12.512-30.176q0-18.016 12.32-30.336l62.336-62.336q-45.664-61.664-56.32-136.32h-88.32q-17.664 0-30.176-12.512t-12.512-30.176 12.512-30.176 30.176-12.512h88.32q10.656-74.656 56.32-136.32l-62.336-62.336q-12.32-12.32-12.32-30.336 0-17.664 12.512-30.176t30.176-12.512q17.312 0 29.984 12.672l62.336 62.336q61.664-45.664 136.32-56.32v-88.32q0-17.664 12.512-30.176t30.176-12.512 30.176 12.512 12.512 30.176v88.32q74.656 10.656 136.32 56.32l62.336-62.336q12.672-12.672 30.336-12.672t30.176 12.512 12.512 30.176-12.672 30.336l-62.336 62.336q45.664 61.664 56.32 136.32h88.32q17.664 0 30.176 12.512t12.512 30.176-12.512 30.176-30.176 12.512h-88.32q-10.656 74.656-56.32 136.32l62.336 62.336q12.672 12.672 12.672 30.336t-12.512 30.176-30.176 12.512-30.336-12.672l-62.336-62.336q-61.664 45.664-136.32 56.32v88.32q0 17.664-12.512 30.176t-30.176 12.512zM512 618.656q70.656 0 120.672-50.016t50.016-120.672-50.016-120.672-120.672-50.016-120.672 50.016-50.016 120.672 50.016 120.672 120.672 50.016zM512 533.344q-35.328 0-60.32-24.992t-24.992-60.32 24.992-60.32 60.32-24.992 60.32 24.992 24.992 60.32-24.992 60.32-60.32 24.992z" />
<glyph unicode="&#xe973;" glyph-name="compose2" d="M960-64h-896c-35.36 0-64 28.64-64 64v896c0 35.36 28.64 64 64 64h640l-128-128h-448v-768h768v448l128 128v-640c0-35.36-28.64-64-64-64zM256 192v192l576 576h64l128-128v-64l-576-576h-192zM544 416l352 352-64 64-352-352 64-64zM384 384l-64-64v-64h64l64 64-64 64z" />
<glyph unicode="&#xe974;" glyph-name="ellipsis2" d="M853.344 576q52.992 0 90.496-37.504t37.504-90.496-37.504-90.496-90.496-37.504-90.496 37.504-37.504 90.496 37.504 90.496 90.496 37.504zM170.656 576q52.992 0 90.496-37.504t37.504-90.496-37.504-90.496-90.496-37.504-90.496 37.504-37.504 90.496 37.504 90.496 90.496 37.504zM170.656 490.656q-17.664 0-30.176-12.512t-12.512-30.176 12.512-30.176 30.176-12.512 30.176 12.512 12.512 30.176-12.512 30.176-30.176 12.512zM512 576q52.992 0 90.496-37.504t37.504-90.496-37.504-90.496-90.496-37.504-90.496 37.504-37.504 90.496 37.504 90.496 90.496 37.504zM512 490.656q-17.664 0-30.176-12.512t-12.512-30.176 12.512-30.176 30.176-12.512 30.176 12.512 12.512 30.176-12.512 30.176-30.176 12.512zM853.344 490.656q-17.664 0-30.176-12.512t-12.512-30.176 12.512-30.176 30.176-12.512 30.176 12.512 12.512 30.176-12.512 30.176-30.176 12.512z" />
<glyph unicode="&#xe975;" glyph-name="timer2" d="M512 105.984q124 0 210.976 88.032t87.008 212-87.008 210.976-210.976 87.008-210.976-87.008-87.008-210.976 87.008-212 210.976-88.032zM812 644q84-105.984 84-237.984 0-157.984-112-271.008t-272-112.992-272 112.992-112 271.008 112 271.008 272 112.992q130.016 0 240-86.016l60 61.984q32-25.984 60-60zM470.016 361.984v256h84v-256h-84zM640 918.016v-86.016h-256v86.016h256z" />
<glyph unicode="&#xe976;" glyph-name="school2" d="M512 832l470.016-256v-342.016h-86.016v296.032l-384-210.016-470.016 256zM214.016 397.984l297.984-164 297.984 164v-172l-297.984-162.016-297.984 162.016v172z" />
<glyph unicode="&#xe977;" glyph-name="user2" d="M1010.176 107.104c-71.552 171.008-209.664 250.592-316.704 287.52 47.776 65.568 73.952 161.792 74.976 279.456 1.76 198.656-162.048 252.64-248.864 253.344s-251.552-50.336-253.344-248.992c-1.024-117.632 23.456-214.24 70.048-280.704-107.648-34.976-247.264-112.288-321.696-281.952l-17.632-40.032 40.48-16.64c8.832-3.552 218.72-88.32 473.696-90.528 255.008-2.272 466.336 78.816 475.264 82.208l40.736 15.872-16.928 40.416zM518.528 842.112c17.024-0.352 165.984-7.584 164.576-167.296-1.12-127.84-35.872-225.024-95.232-266.72l-73.44-51.552-72.352 52.768c-58.656 42.752-91.68 140.544-90.528 268.384 1.408 159.744 150.496 164.352 167.008 164.384zM511.872 53.888c-172.64 1.504-326.304 44.672-398.56 68.576 78.080 136.736 210.4 190.176 311.968 210.656l89.12 17.952 88.8-19.456c101.248-22.304 232.608-78.048 308.352-216.064-72.48-22.688-226.56-63.2-399.712-61.664z" />
<glyph unicode="&#xe978;" glyph-name="head2" d="M512 960q69.664 0 128.512-34.336t93.184-93.184 34.336-128.512v-128q0-53.344-20.64-100.992t-57.696-82.976q97.312-15.328 173.024-45.184t118.496-70.496 42.848-85.664v-84q0-52.992-37.504-90.496t-90.496-37.504h-768q-52.992 0-90.496 37.504t-37.504 90.496v84.352q0 45.024 42.848 85.664t118.304 70.496 172.832 44.832q-36.64 35.68-57.344 83.168t-20.64 100.832v128q0 69.664 34.336 128.512t93.184 93.184 128.512 34.336zM512 320q-92.672 0-178.816-14.848t-150.176-41.504q-25.696-10.656-45.824-22.656t-30.688-21.664-15.84-16.864-5.344-11.52v-84.352q0-17.664 12.512-30.176t30.176-12.512h768q17.664 0 30.176 12.512t12.512 30.176v84q0 4.352-5.344 11.52t-15.84 16.864-30.688 21.664-45.824 23.008q-64 26.656-150.176 41.504t-178.816 14.848zM512 874.656q-70.656 0-120.672-50.016t-50.016-120.672v-128q0-70.656 50.016-120.672t120.672-50.016 120.672 50.016 50.016 120.672v128q0 70.656-50.016 120.672t-120.672 50.016z" />
<glyph unicode="&#xe979;" glyph-name="gf-back2" d="M160.48 449.696l395.040 394.912c15.072 15.072 15.072 39.584 0 54.72s-39.584 15.072-54.72 0l-419.488-419.392c-8.256-8.256-11.552-19.392-10.752-30.208-0.8-10.912 2.496-21.952 10.752-30.272l419.488-419.328c15.072-15.072 39.584-15.072 54.72 0s15.072 39.584 0 54.624l-395.040 394.976zM624.416 449.696l317.728 317.6c15.072 15.072 15.072 39.584 0 54.72s-39.584 15.072-54.624 0l-342.176-342.080c-8.256-8.256-11.552-19.392-10.752-30.208-0.8-10.912 2.496-21.952 10.752-30.272l342.176-342.016c15.072-15.072 39.584-15.072 54.624 0s15.072 39.584 0 54.624l-317.728 317.664z" />
<glyph unicode="&#xe97a;" glyph-name="gf-into2" d="M942.368 478.944l-419.168 418.528c-15.072 15.072-39.584 15.072-54.624 0s-15.072-39.488 0-54.56l394.752-394.080-394.752-394.176c-15.072-15.072-15.072-39.488 0-54.56s39.584-15.072 54.624 0l419.168 418.464c8.256 8.256 11.552 19.296 10.752 30.208 0.8 10.816-2.496 21.856-10.752 30.144zM489.408 448.736c0.864 10.816-2.496 21.856-10.752 30.144l-341.952 341.344c-15.072 15.072-39.488 15.072-54.624 0s-15.072-39.488 0-54.56l317.504-316.928-317.504-316.992c-15.072-15.008-15.072-39.488 0-54.56 15.136-15.072 39.584-15.072 54.624 0l341.952 341.344c8.256 8.256 11.552 19.296 10.752 30.208z" />
<glyph unicode="&#xe97b;" glyph-name="air-play2" d="M170.656 874.656h682.656q52.992 0 90.496-37.504t37.504-90.496v-426.656q0-52.992-37.504-90.496t-90.496-37.504h-106.656l-64 85.344h170.656q17.664 0 30.176 12.512t12.512 30.176v426.656q0 17.664-12.512 30.176t-30.176 12.512h-682.656q-17.664 0-30.176-12.512t-12.512-30.176v-426.656q0-17.664 12.512-30.176t30.176-12.512h170.656l-64-85.344h-106.656q-52.992 0-90.496 37.504t-37.504 90.496v426.656q0 52.992 37.504 90.496t90.496 37.504zM597.344 106.656l-85.344 113.664-85.344-113.664h170.656zM256 21.344l256 341.344 256-341.344h-512z" />
<glyph unicode="&#xe97c;" glyph-name="grid2" d="M224 576h-192c-17.696 0-32-14.304-32-32v-192c0-17.696 14.304-32 32-32h192c17.696 0 32 14.304 32 32v192c0 17.696-14.304 32-32 32zM192 416c0-17.696-14.304-32-32-32h-64c-17.696 0-32 14.304-32 32v64c0 17.696 14.304 32 32 32h64c17.696 0 32-14.304 32-32v-64zM224 960h-192c-17.696 0-32-14.304-32-32v-192c0-17.696 14.304-32 32-32h192c17.696 0 32 46.304 32 64v160c0 17.696-14.304 32-32 32zM192 800c0-17.696-14.304-32-32-32h-64c-17.696 0-32 14.304-32 32v64c0 17.696 14.304 32 32 32h64c17.696 0 32-14.304 32-32v-64zM224 192h-192c-17.696 0-32-14.304-32-32v-192c0-17.696 14.304-32 32-32h192c17.696 0 32 14.304 32 32v192c0 17.696-14.304 32-32 32zM192 32c0-17.696-14.304-32-32-32h-64c-17.696 0-32 14.304-32 32v64c0 17.696 14.304 32 32 32h64c17.696 0 32-14.304 32-32v-64zM608 576h-192c-17.696 0-32-14.304-32-32v-192c0-17.696 14.304-32 32-32h192c17.696 0 32 14.304 32 32v192c0 17.696-14.304 32-32 32zM576 416c0-17.696-14.304-32-32-32h-64c-17.696 0-32 14.304-32 32v64c0 17.696 14.304 32 32 32h64c17.696 0 32-14.304 32-32v-64zM608 192h-192c-17.696 0-32-14.304-32-32v-192c0-17.696 14.304-32 32-32h192c17.696 0 32 14.304 32 32v192c0 17.696-14.304 32-32 32zM576 32c0-17.696-14.304-32-32-32h-64c-17.696 0-32 14.304-32 32v64c0 17.696 14.304 32 32 32h64c17.696 0 32-14.304 32-32v-64zM992 576h-192c-17.696 0-32-14.304-32-32v-192c0-17.696 14.304-32 32-32h192c17.696 0 32 14.304 32 32v192c0 17.696-14.304 32-32 32zM960 416c0-17.696-14.304-32-32-32h-64c-17.696 0-32 14.304-32 32v64c0 17.696 14.304 32 32 32h64c17.696 0 32-14.304 32-32v-64zM992 960h-192c-17.696 0-32-14.304-32-32v-192c0-17.696 14.304-32 32-32h192c17.696 0 32 46.304 32 64v160c0 17.696-14.304 32-32 32zM960 800c0-17.696-14.304-32-32-32h-64c-17.696 0-32 14.304-32 32v64c0 17.696 14.304 32 32 32h64c17.696 0 32-14.304 32-32v-64zM608 960h-192c-17.696 0-32-14.304-32-32v-192c0-17.696 14.304-32 32-32h192c17.696 0 32 46.304 32 64v160c0 17.696-14.304 32-32 32zM576 800c0-17.696-14.304-32-32-32h-64c-17.696 0-32 14.304-32 32v64c0 17.696 14.304 32 32 32h64c17.696 0 32-14.304 32-32v-64zM992 192h-192c-17.696 0-32-14.304-32-32v-192c0-17.696 14.304-32 32-32h192c17.696 0 32 14.304 32 32v192c0 17.696-14.304 32-32 32zM960 32c0-17.696-14.304-32-32-32h-64c-17.696 0-32 14.304-32 32v64c0 17.696 14.304 32 32 32h64c17.696 0 32-14.304 32-32v-64z" />
<glyph unicode="&#xe97d;" glyph-name="account_balance2" d="M489.984 918.016l406.016-214.016v-86.016h-809.984v86.016zM681.984 534.016h128v-300h-128v300zM86.016 22.016v128h809.984v-128h-809.984zM425.984 534.016h128v-300h-128v300zM169.984 534.016h128v-300h-128v300z" />
<glyph unicode="&#xe97e;" glyph-name="account_balance_wallet2" d="M681.984 384q25.984 0 45.024 18.016t18.976 45.984-18.976 45.984-45.024 18.016-45.024-18.016-18.976-45.984 18.976-45.984 45.024-18.016zM512 278.016v340h425.984v-340h-425.984zM896 192v-41.984q0-34.016-25.984-60t-60-25.984h-596q-36 0-61.024 25.984t-24.992 60v596q0 34.016 24.992 60t61.024 25.984h596q34.016 0 60-25.984t25.984-60v-41.984h-384q-36 0-61.024-25.984t-24.992-60v-340q0-34.016 24.992-60t61.024-25.984h384z" />
<glyph unicode="&#xe97f;" glyph-name="event_note2" d="M598.016 361.984v-84h-300v84h300zM809.984 150.016v468h-596v-468h596zM809.984 832q34.016 0 60-25.984t25.984-60v-596q0-34.016-25.984-60t-60-25.984h-596q-36 0-61.024 25.984t-24.992 60v596q0 34.016 24.992 60t61.024 25.984h41.984v86.016h86.016v-86.016h340v86.016h86.016v-86.016h41.984zM726.016 534.016v-86.016h-428v86.016h428z" />
<glyph unicode="&#xe980;" glyph-name="hand22" d="M917.696 73.472c-2.912-8.896-9.888-18.784-21.312-22.112-8.256-2.4-280.992-81.408-289.376-83.616-24-6.4-40.704-1.696-51.648 8-16.704 14.688-209.568 145.92-452.864 158.304-26.016 1.28-13.248 99.904 61.088 99.904 50.944 0 199.872-37.024 217.856-19.008 13.888 13.92 20.16 96.192-37.728 239.776v0l-116.48 288.608c-11.072 27.392 2.24 58.528 29.6 69.568s58.624-2.208 69.568-29.6c0 0 91.712-227.232 101.696-251.84 9.888-24.576 22.080-33.888 35.328-28.768 11.84 4.512 14.272 12.384 7.104 36.288l-104.768 308.64c-9.536 27.968 5.44 58.272 33.376 67.776s58.432-5.44 67.84-33.376l99.648-293.472c8.8-25.792 18.112-39.328 32.864-33.088 8.864 3.744 8.256 17.312 5.888 29.12l-69.952 280.128c-7.168 28.736 10.304 57.696 38.976 64.864s57.6-10.24 64.832-38.976l64.512-258.144c9.408-37.952 18.080-51.616 33.088-47.872 15.296 3.744 14.592 16.32 12.48 26.72-4.864 24.32-44.64 221.6-44.64 221.6-5.28 26.368 11.776 51.968 38.080 57.248s51.904-11.776 57.152-38.048l48.544-241.216 0.064-0.064c0 0 0 0 0-0.064l29.088-144.64c6.336-27.296 13.632-52.992 23.040-78.176 55.552-147.904 26.56-284.864 17.088-314.528z" />
<glyph unicode="&#xe981;" glyph-name="history32" d="M512 617.984h64v-180l150.016-89.984-32-52-182.016 109.984v212zM553.984 832q157.984 0 271.008-112t112.992-272-112.992-272-271.008-112-269.984 112l60 61.984q88.032-88.032 210.016-88.032 124 0 212 87.008t88.032 210.976-88.032 210.976-212 87.008-210.976-87.008-87.008-210.976h128l-172-172-4 6.016-166.016 166.016h128q0 160 112.992 272t271.008 112z" />
<glyph unicode="&#xe982;" glyph-name="thumbs_up_down2" d="M960 534.016q28 0 45.984-18.976t18.016-45.024v-278.016q0-28-18.016-45.984l-212-210.016-34.016 34.016q-13.984 13.984-13.984 34.016 6.016 28 16.992 80t13.024 66.016h-221.984q-18.016 0-29.984 12t-12 29.984v54.016q0 6.016 4 22.016l98.016 226.016q18.016 40.032 57.984 40.032h288zM512 704v-54.016q0-6.016-4-22.016l-98.016-226.016q-18.016-40.032-57.984-40.032h-288q-28 0-45.984 18.976t-18.016 45.024v278.016q0 28 18.016 45.984l212 210.016 34.016-34.016q13.984-13.984 13.984-34.016-6.016-28-16.992-80t-13.024-66.016h221.984q18.016 0 29.984-12t12-29.984z" />
<glyph unicode="&#xe983;" glyph-name="timer_off2" d="M512 105.984q77.984 0 150.016 41.984l-408.032 408.032q-40.032-68-40.032-150.016 0-124 87.008-212t210.976-88.032zM128 790.016l758.016-758.016-54.016-54.016-108 108q-100-64-212-64-160 0-272 112.992t-112 271.008q0 116 64 212l-118.016 118.016zM470.016 557.984v60h84v-146.016zM640 918.016v-86.016h-256v86.016h256zM812 765.984l60-60-60-61.984q84-105.984 84-237.984 0-116-64-212l-61.984 61.984q40.032 68 40.032 150.016 0 124-87.008 210.976t-210.976 87.008q-80 0-148-40.032l-64 61.984q96 64 212 64 134.016 0 240-84z" />
<glyph unicode="&#xe984;" glyph-name="turned_in22" d="M726.016 832q34.016 0 59.008-25.984t24.992-60v-681.984l-297.984 128-297.984-128v681.984q0 34.016 24.992 60t59.008 25.984h428z" />
<glyph unicode="&#xe985;" glyph-name="turned_in_not22" d="M726.016 192v553.984h-428v-553.984l214.016 93.984zM726.016 832q34.016 0 59.008-25.984t24.992-60v-681.984l-297.984 128-297.984-128v681.984q0 34.016 24.992 60t59.008 25.984h428z" />
<glyph unicode="&#xe986;" glyph-name="clipboard82" d="M426.656 917.344h170.656q41.344 0 74.336-23.84t46.336-61.472h50.016q52.992 0 90.496-37.504t37.504-90.496v-597.344q0-52.992-37.504-90.496t-90.496-37.504h-512q-52.992 0-90.496 37.504t-37.504 90.496v597.344q0 52.992 37.504 90.496t90.496 37.504h50.016q13.312 37.664 46.336 61.472t74.336 23.84zM768 746.656h-50.016q-13.312-37.664-46.336-61.472t-74.336-23.84h-170.656q-41.344 0-74.336 23.84t-46.336 61.472h-50.016q-17.664 0-30.176-12.512t-12.512-30.176v-597.344q0-17.664 12.512-30.176t30.176-12.512h512q17.664 0 30.176 12.512t12.512 30.176v597.344q0 17.664-12.512 30.176t-30.176 12.512zM597.344 832h-170.656q-17.664 0-30.176-12.512t-12.512-30.176 12.512-30.176 30.176-12.512h170.656q17.664 0 30.176 12.512t12.512 30.176-12.512 30.176-30.176 12.512z" />
<glyph unicode="&#xe987;" glyph-name="comment52" d="M853.344 917.344h-725.344c-70.56 0-128-57.44-128-128v-512c0-70.56 85.344-85.344 128-85.344v-256l384 256h341.344c70.56 0 128 57.44 128 128v469.344c0 70.56-57.44 128-128 128zM896 320c0-23.52-19.168-42.656-42.656-42.656h-384l-256-213.344v213.344h-85.344c-23.52 0-42.656 19.168-42.656 42.656v469.344c0 23.52 19.168 42.656 42.656 42.656h725.344c23.52 0 42.656-19.168 42.656-42.656v-469.344zM170.656 704h512v-85.344h-512zM170.656 576h640v-42.656h-640zM170.656 490.656h640v-42.656h-640zM170.656 405.344h341.344v-42.656h-341.344z" />
<glyph unicode="&#xe988;" glyph-name="home3" d="M1005.376 563.040l-378.208 378.176c-14.432 14.496-33.792 20.096-52.736 18.528h-124.832c-18.944 1.568-38.304-4.032-52.736-18.528l-76.8-76.8v95.328h-191.936v-287.264l-109.472-109.44c-14.496-14.496-20.064-33.824-18.496-52.736v-126.4c0-35.328 28.608-64 63.968-64h63.968v-319.904c0-35.328 28.608-64 64-64h639.84c35.36 0 64 28.64 64 64v319.904h63.968c35.36 0 64 28.64 64 64v126.4c1.568 18.912-4 38.24-18.496 52.736zM895.904 447.872h-127.968v-383.904h-127.968v255.936h-255.936v-255.936h-127.968v383.904h-127.968v35.488l348.416 348.416h70.976l348.416-348.416v-35.488z" />
<glyph unicode="&#xe989;" glyph-name="image62" d="M170.656 917.344h682.656q52.992 0 90.496-37.504t37.504-90.496v-682.656q0-52.992-37.504-90.496t-90.496-37.504h-682.656q-52.992 0-90.496 37.504t-37.504 90.496v682.656q0 52.992 37.504 90.496t90.496 37.504zM896 216.992l-213.344 213.344-366.336-366.336h536.992q17.664 0 30.176 12.512t12.512 30.176v110.336zM853.344 832h-682.656q-17.664 0-30.176-12.512t-12.512-30.176v-682.656q0-17.664 12.512-30.176t30.176-12.512h24.992l487.008 487.008 213.344-213.344v451.68q0 17.664-12.512 30.176t-30.176 12.512zM341.344 746.656q52.992 0 90.496-37.504t37.504-90.496-37.504-90.496-90.496-37.504-90.496 37.504-37.504 90.496 37.504 90.496 90.496 37.504zM341.344 661.344q-17.664 0-30.176-12.512t-12.512-30.176 12.512-30.176 30.176-12.512 30.176 12.512 12.512 30.176-12.512 30.176-30.176 12.512z" />
<glyph unicode="&#xe98a;" glyph-name="info_outline" d="M470.016 576v86.016h84v-86.016h-84zM512 105.984q140 0 240.992 100.992t100.992 240.992-100.992 240.992-240.992 100.992-240.992-100.992-100.992-240.992 100.992-240.992 240.992-100.992zM512 873.984q176 0 301.024-125.024t125.024-301.024-125.024-301.024-301.024-125.024-301.024 125.024-125.024 301.024 125.024 301.024 301.024 125.024zM470.016 233.984v256h84v-256h-84z" />
<glyph unicode="&#xe98b;" glyph-name="info72" d="M553.984 576v86.016h-84v-86.016h84zM553.984 233.984v256h-84v-256h84zM512 873.984q176 0 301.024-125.024t125.024-301.024-125.024-301.024-301.024-125.024-301.024 125.024-125.024 301.024 125.024 301.024 301.024 125.024z" />
<glyph unicode="&#xe98c;" glyph-name="radio_button2" d="M512 105.984q140 0 240.992 100.992t100.992 240.992-100.992 240.992-240.992 100.992-240.992-100.992-100.992-240.992 100.992-240.992 240.992-100.992zM512 873.984q176 0 301.024-125.024t125.024-301.024-125.024-301.024-301.024-125.024-301.024 125.024-125.024 301.024 125.024 301.024 301.024 125.024zM512 662.016q88.032 0 151.008-63.008t63.008-151.008-63.008-151.008-151.008-63.008-151.008 63.008-63.008 151.008 63.008 151.008 151.008 63.008z" />
<glyph unicode="&#xe98d;" glyph-name="j-bottom2" d="M50.912 666.848l461.088-461.088 461.088 461.088z" />
<glyph unicode="&#xe98e;" glyph-name="j-left2" d="M742.4 897.088l-460.768-460.768 460.768-460.768z" />
<glyph unicode="&#xe98f;" glyph-name="j-right2" d="M283.68-25.44l461.76 461.76-461.76 461.76z" />
<glyph unicode="&#xe990;" glyph-name="j-top2" d="M969.792 210.208l-457.792 457.792-457.792-457.792z" />
<glyph unicode="&#xe991;" glyph-name="voice_chat2" d="M768 361.984v342.016l-169.984-136.032v136.032h-342.016v-342.016h342.016v137.984zM854.016 873.984q34.016 0 59.008-24.992t24.992-59.008v-512q0-34.016-24.992-60t-59.008-25.984h-598.016l-169.984-169.984v768q0 34.016 24.992 59.008t59.008 24.992h684z" />
<glyph unicode="&#xe992;" glyph-name="watch42" d="M384 960h256q52.992 0 90.496-37.504t37.504-90.496v-98.016q60-53.344 93.984-127.84t34.016-158.176-34.016-157.984-93.984-128v-98.016q0-52.992-37.504-90.496t-90.496-37.504h-256q-52.992 0-90.496 37.504t-37.504 90.496v98.016q-60 53.664-93.984 128t-34.016 157.984 34.016 158.176 93.984 127.84v98.016q0 52.992 37.504 90.496t90.496 37.504zM682.656 64v40.032q-80-40.032-170.656-40.032t-170.656 40.032v-40.032q0-17.664 12.512-30.176t30.176-12.512h256q17.664 0 30.176 12.512t12.512 30.176zM512 746.656q-60.672 0-116-23.68t-95.328-63.648-63.648-95.328-23.68-116 23.68-116 63.648-95.328 95.328-63.648 116-23.68 116 23.68 95.328 63.648 63.648 95.328 23.68 116-23.68 116-63.648 95.328-95.328 63.648-116 23.68zM512 661.344q17.664 0 30.176-12.512t12.512-30.176v-152.992l72.992-72.672q12.32-12.32 12.32-30.336t-12.32-30.336-30.336-12.32-30.336 12.32l-85.344 85.344q-12.32 12.32-12.32 30.336v170.656q0 17.664 12.512 30.176t30.176 12.512zM640 874.656h-256q-17.664 0-30.176-12.512t-12.512-30.176v-40.032q80 40.032 170.656 40.032t170.656-40.032v40.032q0 17.664-12.512 30.176t-30.176 12.512z" />
<glyph unicode="&#xe993;" glyph-name="plus_one" d="M617.984 700l192 45.984v-553.984h-84v452l-108-22.016v77.984zM425.984 617.984v-169.984h172v-86.016h-172v-169.984h-84v169.984h-172v86.016h172v169.984h84z" />
<glyph unicode="&#xe994;" glyph-name="visibility2" d="M512 576q52 0 89.984-38.016t38.016-89.984-38.016-89.984-89.984-38.016-89.984 38.016-38.016 89.984 38.016 89.984 89.984 38.016zM512 233.984q88.032 0 151.008 63.008t63.008 151.008-63.008 151.008-151.008 63.008-151.008-63.008-63.008-151.008 63.008-151.008 151.008-63.008zM512 768q157.984 0 285.984-88.032t184.032-232.032q-56.032-144-184.032-232.032t-285.984-88.032-285.984 88.032-184.032 232.032q56.032 144 184.032 232.032t285.984 88.032z" />
<glyph unicode="&#xe995;" glyph-name="whatshot" d="M500 150.016q86.016 0 144.992 59.008t59.008 144.992q0 88.032-24.032 172-61.984-82.016-198.016-109.984-120.032-25.984-120.032-132 0-56.032 40.032-95.008t98.016-39.008zM576 932q128-104.032 203.008-253.024t75.008-317.024q0-140-100-240t-242.016-100-242.016 100-100 240q0 216.032 137.984 380v-16q0-66.016 44-112t109.984-45.984q64 0 104.992 45.024t40.992 112.992q0 40.032-8.032 92t-16 82.016z" />
<glyph unicode="&#xe996;" glyph-name="zoomin2" d="M995.84-35.84c-37.568-37.568-98.464-37.568-136 0l-169.728 169.728c-69.792-44.736-152.256-71.424-241.312-71.424-247.84 0-448.768 200.896-448.768 448.768s200.928 448.768 448.768 448.768c247.872 0 448.768-200.896 448.768-448.768 0-89.056-26.688-171.552-71.424-241.344l169.728-169.696c37.568-37.568 37.568-98.432 0-136zM448.768 831.776c-177.024 0-320.544-143.52-320.544-320.544s143.52-320.544 320.544-320.544c177.056 0 320.544 143.488 320.544 320.544s-143.488 320.544-320.544 320.544zM512.864 318.912h-128.224v128.224h-128.224v128.224h128.224v128.224h128.224v-128.224h128.224v-128.224h-128.224v-128.224z" />
<glyph unicode="&#xe997;" glyph-name="zoomout" d="M995.84 100.192l-169.728 169.696c44.736 69.792 71.424 152.288 71.424 241.344 0 247.872-200.896 448.768-448.768 448.768s-448.768-200.896-448.768-448.768 200.928-448.768 448.768-448.768c89.056 0 171.552 26.688 241.312 71.424l169.728-169.728c37.568-37.568 98.464-37.568 136 0s37.568 98.464 0 136zM448.768 190.688c-177.024 0-320.544 143.488-320.544 320.544s143.52 320.544 320.544 320.544c177.056 0 320.544-143.52 320.544-320.544s-143.488-320.544-320.544-320.544zM256.448 447.136h384.672v128.224h-384.672v-128.224z" />
<glyph unicode="&#xe998;" glyph-name="keyboard_control2" d="M512 534.016q34.016 0 60-25.984t25.984-60-25.984-60-60-25.984-60 25.984-25.984 60 25.984 60 60 25.984zM768 534.016q34.016 0 60-25.984t25.984-60-25.984-60-60-25.984-60 25.984-25.984 60 25.984 60 60 25.984zM256 534.016q34.016 0 60-25.984t25.984-60-25.984-60-60-25.984-60 25.984-25.984 60 25.984 60 60 25.984z" />
</font>
</defs>
</svg>
